<svg width="32" height="32" viewBox="0 0 32 32" fill="none" xmlns="http://www.w3.org/2000/svg">
<g id="Call">
<path id="Vector" d="M24.9274 1.92252C24.4299 1.95002 22.8699 1.99752 20.4949 3.11002C18.1199 4.22002 14.8599 6.38002 10.6199 10.62C6.37992 14.86 4.21742 18.1225 3.10742 20.4975C1.99742 22.87 1.94742 24.43 1.91992 24.9275V24.96C1.91992 25.535 2.20992 25.9275 2.54492 26.3675C2.87992 26.805 3.30742 27.2525 3.75492 27.6825C4.65242 28.5425 5.61242 29.3125 6.05242 29.625C7.06492 30.35 8.25242 30.18 8.79242 29.42C9.17992 28.88 12.1174 24.4175 12.5574 23.69C13.0049 23.0125 12.8249 22.2075 12.4174 21.46C12.1099 20.8975 11.2449 19.3925 10.9924 18.955C11.2124 18.62 12.0624 17.3725 14.7174 14.7175L14.7199 14.715V14.7125C17.3849 12.0025 18.6274 11.1925 18.9499 10.99C19.3774 11.235 20.8574 12.0875 21.4399 12.4075C22.1499 12.8325 22.9699 12.97 23.6524 12.58L23.6599 12.5775L23.6649 12.5725C24.0074 12.3675 25.2799 11.54 26.5849 10.6825C27.2374 10.255 27.8849 9.82752 28.3999 9.48752C28.9074 9.14752 29.2499 8.92002 29.4199 8.79252C30.1774 8.25252 30.3499 7.06752 29.6249 6.05252C29.3149 5.62002 28.5474 4.64252 27.6849 3.73752C27.2549 3.28502 26.8049 2.85502 26.3624 2.52002C25.9224 2.18752 25.5174 1.89252 24.9274 1.92252ZM24.9924 3.20002C24.9324 3.20252 25.2424 3.27752 25.5899 3.54002C25.9399 3.80502 26.3549 4.19752 26.7574 4.62002C27.5624 5.46502 28.3324 6.44752 28.5824 6.79752C28.9799 7.35252 28.7024 7.73252 28.6774 7.75002L28.6699 7.75752L28.6624 7.76002C28.6074 7.80502 28.2024 8.08002 27.6899 8.42002C27.1799 8.76002 26.5349 9.18752 25.8824 9.61252C24.5874 10.4625 23.2449 11.3325 23.0199 11.47H23.0174C22.9174 11.525 22.5074 11.5525 22.0974 11.3075L22.0874 11.3L22.0749 11.295C21.4899 10.975 19.2299 9.67752 19.2299 9.67752L18.9124 9.49502L18.5949 9.67752C18.5949 9.67752 16.9224 10.6475 13.8124 13.8125C13.8124 13.8125 13.8124 13.815 13.8099 13.815C13.8099 13.815 13.8099 13.815 13.8099 13.8175C10.7024 16.9225 9.68492 18.58 9.68492 18.58L9.48992 18.9025L9.67742 19.23C9.67742 19.23 10.9749 21.49 11.2924 22.075C11.5574 22.56 11.4874 22.9875 11.4899 22.98L11.4824 22.9925L11.4749 23.0075C11.2199 23.4325 7.92242 28.435 7.74992 28.6775C7.73242 28.7025 7.34992 28.98 6.79742 28.5825C6.45242 28.3375 5.47992 27.565 4.63992 26.76C4.22242 26.355 3.82992 25.9425 3.56242 25.59C3.29742 25.24 3.20492 24.925 3.20492 24.9625C3.23242 24.39 3.24742 23.2175 4.26742 21.04C5.29742 18.835 7.36492 15.685 11.5249 11.525C15.6849 7.36502 18.8324 5.29752 21.0374 4.26752C23.2424 3.23752 24.4249 3.23002 24.9924 3.20002Z" fill="#676767"/>
</g>
</svg>
