<svg width="32" height="32" viewBox="0 0 32 32" fill="none" xmlns="http://www.w3.org/2000/svg">
<g id="Cancel">
<path id="Vector" d="M15.9993 1.28C7.8774 1.28 1.2793 7.8781 1.2793 16C1.2793 24.1219 7.8774 30.72 15.9993 30.72C24.1212 30.72 30.7193 24.1219 30.7193 16C30.7193 7.8781 24.1212 1.28 15.9993 1.28ZM15.9993 2.56C23.4294 2.56 29.4393 8.5699 29.4393 16C29.4393 23.4301 23.4294 29.44 15.9993 29.44C8.56919 29.44 2.5593 23.4301 2.5593 16C2.5593 8.5699 8.56919 2.56 15.9993 2.56ZM21.113 10.2312C20.9442 10.2352 20.7838 10.3058 20.6668 10.4275L15.9993 15.095L11.3318 10.4275C11.2722 10.3662 11.2008 10.3175 11.122 10.2842C11.0432 10.2509 10.9586 10.2338 10.873 10.2337C10.7457 10.2338 10.6213 10.2718 10.5157 10.3429C10.4101 10.414 10.3281 10.515 10.2802 10.633C10.2323 10.7509 10.2206 10.8805 10.2468 11.0051C10.2729 11.1297 10.3356 11.2437 10.4268 11.3325L15.0943 16L10.4268 20.6675C10.3654 20.7265 10.3163 20.7971 10.2826 20.8753C10.2488 20.9534 10.2309 21.0375 10.2301 21.1227C10.2292 21.2078 10.2453 21.2923 10.2775 21.3711C10.3097 21.45 10.3573 21.5216 10.4175 21.5818C10.4777 21.642 10.5493 21.6896 10.6282 21.7218C10.707 21.754 10.7915 21.7701 10.8766 21.7692C10.9617 21.7684 11.0459 21.7505 11.124 21.7167C11.2022 21.683 11.2728 21.6339 11.3318 21.5725L15.9993 16.905L20.6668 21.5725C20.7258 21.6339 20.7964 21.683 20.8746 21.7167C20.9527 21.7505 21.0368 21.7684 21.122 21.7692C21.2071 21.7701 21.2916 21.754 21.3704 21.7218C21.4493 21.6896 21.5209 21.642 21.5811 21.5818C21.6413 21.5216 21.6889 21.45 21.7211 21.3711C21.7533 21.2923 21.7694 21.2078 21.7685 21.1227C21.7677 21.0375 21.7498 20.9534 21.716 20.8753C21.6823 20.7971 21.6332 20.7265 21.5718 20.6675L16.9043 16L21.5718 11.3325C21.6647 11.2431 21.7285 11.1278 21.7548 11.0015C21.7811 10.8753 21.7686 10.744 21.719 10.625C21.6694 10.506 21.585 10.4047 21.4769 10.3344C21.3688 10.2642 21.242 10.2282 21.113 10.2312Z" fill="black"/>
</g>
</svg>
