<svg width="32" height="32" viewBox="0 0 32 32" fill="none" xmlns="http://www.w3.org/2000/svg">
<g id="Clock">
<path id="Vector" d="M15.9993 1.28003C7.87725 1.28003 1.2793 7.87798 1.2793 16C1.2793 24.1221 7.87725 30.72 15.9993 30.72C24.1213 30.72 30.7193 24.1221 30.7193 16C30.7193 7.87798 24.1213 1.28003 15.9993 1.28003ZM15.9993 2.56003C23.4296 2.56003 29.4393 8.56974 29.4393 16C29.4393 23.4303 23.4296 29.44 15.9993 29.44C8.56901 29.44 2.5593 23.4303 2.5593 16C2.5593 8.56974 8.56901 2.56003 15.9993 2.56003ZM15.9893 4.47128C15.8198 4.47393 15.6582 4.54373 15.5401 4.66536C15.422 4.78698 15.357 4.9505 15.3593 5.12003V14.1913C14.9852 14.3235 14.6613 14.5685 14.432 14.8924C14.2028 15.2163 14.0796 15.6032 14.0793 16C14.0799 16.2861 14.1444 16.5684 14.268 16.8263L10.4268 20.6675C10.3654 20.7265 10.3163 20.7971 10.2826 20.8753C10.2488 20.9535 10.2309 21.0376 10.2301 21.1227C10.2292 21.2079 10.2453 21.2923 10.2775 21.3712C10.3097 21.45 10.3573 21.5216 10.4175 21.5818C10.4777 21.642 10.5493 21.6896 10.6282 21.7218C10.707 21.754 10.7915 21.7701 10.8766 21.7693C10.9617 21.7684 11.0459 21.7506 11.124 21.7168C11.2022 21.683 11.2728 21.634 11.3318 21.5725L15.173 17.7313C15.431 17.855 15.7133 17.9194 15.9993 17.92C16.5085 17.92 16.9969 17.7177 17.3569 17.3577C17.717 16.9976 17.9193 16.5092 17.9193 16C17.9187 15.6034 17.7954 15.2168 17.5662 14.8931C17.337 14.5695 17.0132 14.3247 16.6393 14.1925V5.12003C16.6405 5.0344 16.6244 4.94941 16.5922 4.87009C16.5599 4.79077 16.5121 4.71873 16.4514 4.65824C16.3908 4.59774 16.3187 4.55003 16.2393 4.51791C16.1599 4.4858 16.0749 4.46994 15.9893 4.47128Z" fill="white"/>
</g>
</svg>
