<svg width="20" height="21" viewBox="0 0 20 21" fill="none" xmlns="http://www.w3.org/2000/svg">
<g id="Close">
<path id="Vector" d="M4.15856 3.82519C3.99278 3.82523 3.83078 3.87472 3.69327 3.96731C3.55577 4.05991 3.449 4.19141 3.38662 4.345C3.32423 4.49859 3.30908 4.6673 3.34308 4.82955C3.37708 4.99181 3.4587 5.14023 3.5775 5.25586L8.82164 10.5L3.5775 15.7441C3.49753 15.8209 3.43367 15.9129 3.38969 16.0147C3.3457 16.1164 3.32246 16.226 3.32133 16.3368C3.3202 16.4477 3.34121 16.5577 3.38312 16.6603C3.42502 16.763 3.48699 16.8562 3.56539 16.9346C3.64379 17.013 3.73704 17.075 3.83969 17.1169C3.94234 17.1588 4.05232 17.1798 4.16318 17.1787C4.27405 17.1776 4.38358 17.1543 4.48535 17.1103C4.58713 17.0664 4.6791 17.0025 4.75589 16.9225L10 11.6784L15.2442 16.9225C15.321 17.0025 15.4129 17.0664 15.5147 17.1103C15.6165 17.1543 15.726 17.1776 15.8369 17.1787C15.9477 17.1798 16.0577 17.1588 16.1604 17.1169C16.263 17.075 16.3563 17.013 16.4347 16.9346C16.5131 16.8562 16.575 16.763 16.6169 16.6603C16.6589 16.5577 16.6799 16.4477 16.6787 16.3368C16.6776 16.226 16.6544 16.1164 16.6104 16.0147C16.5664 15.9129 16.5025 15.8209 16.4226 15.7441L11.1784 10.5L16.4226 5.25586C16.543 5.1388 16.6252 4.9881 16.6585 4.8235C16.6918 4.6589 16.6746 4.48808 16.6092 4.33343C16.5437 4.17877 16.4331 4.0475 16.2917 3.95681C16.1504 3.86612 15.9849 3.82024 15.8171 3.82519C15.6006 3.83164 15.3951 3.92212 15.2442 4.07747L10 9.32161L4.75589 4.07747C4.67823 3.99764 4.58536 3.93419 4.48276 3.89086C4.38017 3.84753 4.26993 3.8252 4.15856 3.82519Z" fill="white"/>
</g>
</svg>
