<svg width="32" height="32" viewBox="0 0 32 32" fill="none" xmlns="http://www.w3.org/2000/svg">
<g id="Expensive" clip-path="url(#clip0_36_10813)">
<path id="Vector" d="M11.4599 4.47998C5.09994 4.47998 -0.0600586 9.63998 -0.0600586 16C-0.0600586 22.36 5.09994 27.52 11.4599 27.52C12.2424 27.52 13.0024 27.4275 13.7399 27.28C14.4124 27.4 15.1599 27.52 15.9399 27.52C16.7224 27.52 17.4824 27.4275 18.2199 27.28C18.8924 27.4 19.6399 27.52 20.4199 27.52C26.7799 27.52 31.9399 22.36 31.9399 16C31.9399 9.63998 26.7799 4.47998 20.4199 4.47998C19.6824 4.47998 18.9249 4.54498 18.1999 4.71998C17.4674 4.57498 16.7149 4.47998 15.9399 4.47998C15.2024 4.47998 14.4449 4.54498 13.7199 4.71998C12.9874 4.57498 12.2349 4.47998 11.4599 4.47998ZM11.4599 5.75998C12.1124 5.75998 12.7399 5.82498 13.3599 5.93998C13.4799 6.00998 13.6224 6.03748 13.7599 6.01998C18.3124 7.06248 21.6999 11.1225 21.6999 16C21.6999 20.89 18.2924 24.9525 13.7199 25.98C13.6149 25.9825 13.5124 26.01 13.4199 26.06C12.7824 26.1825 12.1349 26.24 11.4599 26.24C5.78994 26.24 1.21994 21.67 1.21994 16C1.21994 10.33 5.78994 5.75998 11.4599 5.75998ZM16.8199 5.81998C17.1649 5.84998 17.5049 5.87748 17.8399 5.93998C17.9599 6.00998 18.1024 6.03748 18.2399 6.01998C22.7924 7.06248 26.1799 11.1225 26.1799 16C26.1799 20.89 22.7724 24.9525 18.1999 25.98C18.0949 25.9825 17.9924 26.01 17.8999 26.06C17.5474 26.1275 17.1849 26.15 16.8199 26.18C20.4824 24.25 22.9799 20.4275 22.9799 16C22.9799 11.5725 20.4824 7.74998 16.8199 5.81998ZM21.2999 5.81998C26.5524 6.26998 30.6599 10.63 30.6599 16C30.6599 21.37 26.5524 25.73 21.2999 26.18C24.9624 24.25 27.4599 20.4275 27.4599 16C27.4599 11.5725 24.9624 7.74998 21.2999 5.81998ZM11.1999 10.56C11.1349 11.0075 11.0124 11.325 10.8199 11.58C10.6274 11.835 10.3749 12.0925 10.1199 12.22C9.79994 12.3475 9.47994 12.475 9.15994 12.54C8.77494 12.605 8.44494 12.6 8.05994 12.6V13.64H10.8799V21.44H12.1599V10.56H11.1999Z" fill="#2973E2"/>
</g>
<defs>
<clipPath id="clip0_36_10813">
<rect width="32" height="32" fill="white"/>
</clipPath>
</defs>
</svg>
