<svg width="48" height="48" viewBox="0 0 48 48" fill="none" xmlns="http://www.w3.org/2000/svg">
<g id="Get Quote">
<path id="Vector" opacity="0.35" d="M22 19.072C22 12.996 17.076 8.07202 11 8.07202C4.924 8.07202 0 12.996 0 19.072C0 25.148 4.924 30.072 11 30.072C11.338 30.072 11.67 30.052 12 30.022V36.67C12 39.118 15.272 39.904 16.406 37.734C18.93 32.91 21.626 26.38 21.938 20.228C21.978 19.846 22 19.462 22 19.072Z" fill="black"/>
<path id="Vector_2" d="M48 19.072C48 12.996 43.076 8.07202 37 8.07202C30.924 8.07202 26 12.996 26 19.072C26 25.148 30.924 30.072 37 30.072C37.338 30.072 37.67 30.052 38 30.022V36.67C38 39.118 41.272 39.904 42.406 37.734C44.93 32.91 47.626 26.38 47.938 20.228C47.978 19.846 48 19.462 48 19.072Z" fill="black"/>
</g>
</svg>
