<svg width="20" height="20" viewBox="0 0 20 20" fill="none" xmlns="http://www.w3.org/2000/svg">
<g id="Done">
<path id="Vector" d="M16.7748 3.45003C16.5092 3.4594 16.2655 3.60003 16.1248 3.82503L8.59983 15.3375L3.72483 11.125C3.51546 10.9078 3.2014 10.8266 2.91233 10.9172C2.62483 11.0063 2.41077 11.25 2.36077 11.5469C2.31077 11.8453 2.43108 12.1453 2.67483 12.325L8.24983 17.15C8.42483 17.2985 8.65608 17.3641 8.88265 17.3313C9.11077 17.2969 9.31233 17.1672 9.43733 16.975L17.4748 4.70003C17.6467 4.44846 17.6608 4.12346 17.5123 3.85784C17.3639 3.59378 17.078 3.43596 16.7748 3.45003Z" fill="#2973E2"/>
</g>
</svg>
