<svg width="20" height="20" viewBox="0 0 20 20" fill="none" xmlns="http://www.w3.org/2000/svg">
<g id="Facebook F">
<path id="Vector" d="M11.5372 0.848755C10.1708 0.848755 9.01122 1.27182 8.22989 2.12073C7.44856 2.96964 7.08243 4.18031 7.08243 5.62496V7.08329H5.63223C4.82905 7.08329 4.16595 7.75196 4.1739 8.55546L4.18611 9.80709V9.8079C4.19549 10.6002 4.85291 11.2523 5.64607 11.2516L7.08324 11.2508V18.125C7.08324 18.9229 7.74368 19.5833 8.54157 19.5833H10.2082C11.0061 19.5833 11.6666 18.9229 11.6666 18.125V11.25H12.9565C13.6914 11.25 14.3196 10.6901 14.405 9.96008L14.5507 8.71008C14.6501 7.85444 13.9639 7.08329 13.1021 7.08329H11.6747L11.6926 5.71366C11.6926 5.71095 11.6926 5.70824 11.6926 5.70553C11.6926 5.41976 11.9098 5.2026 12.1955 5.2026H13.4073C14.0565 5.2026 14.5963 4.66286 14.5963 4.01363V2.10933C14.5963 1.49866 14.1212 0.979251 13.5139 0.924438H13.5123C13.3938 0.914071 12.574 0.848755 11.5372 0.848755ZM11.5372 2.09875C12.4863 2.09875 13.3387 2.16694 13.3463 2.16711V3.9526H12.1955C11.2346 3.9526 10.4426 4.74463 10.4426 5.70553L10.4166 7.70015C10.4155 7.78291 10.4309 7.86506 10.4618 7.94182C10.4927 8.01859 10.5386 8.08845 10.5967 8.14735C10.6549 8.20625 10.7242 8.25301 10.8005 8.28493C10.8769 8.31685 10.9588 8.33329 11.0416 8.33329H13.1021C13.2378 8.33329 13.3244 8.43169 13.3088 8.56604L13.164 9.81523C13.151 9.92606 13.0674 9.99996 12.9565 9.99996H11.0416C10.8758 9.99998 10.7169 10.0658 10.5997 10.183C10.4824 10.3002 10.4166 10.4592 10.4166 10.625V18.125C10.4166 18.2479 10.3312 18.3333 10.2082 18.3333H8.54157C8.41864 18.3333 8.33324 18.2479 8.33324 18.125V10.625C8.33322 10.4592 8.26737 10.3002 8.15016 10.183C8.03296 10.0658 7.874 9.99998 7.70824 9.99996L5.64525 10.0016H5.64444C5.5239 10.0017 5.43821 9.91597 5.43611 9.79407L5.4239 8.54325C5.4227 8.42009 5.50875 8.33329 5.63223 8.33329H7.70743C7.87318 8.33328 8.03214 8.26742 8.14935 8.15022C8.26656 8.03301 8.33241 7.87405 8.33243 7.70829V5.62496C8.33243 4.38919 8.63819 3.5243 9.1503 2.9679C9.66241 2.41149 10.4173 2.09875 11.5372 2.09875Z" fill="#2973E2"/>
</g>
</svg>
