<svg width="21" height="21" viewBox="0 0 21 21" fill="none" xmlns="http://www.w3.org/2000/svg">
<g id="Facebook F" clip-path="url(#clip0_98_3539)">
<path id="Vector" d="M12.2037 1.34879C10.8373 1.34879 9.67772 1.77185 8.89639 2.62076C8.11506 3.46967 7.74893 4.68034 7.74893 6.12499V7.58332H6.29874C5.49555 7.58332 4.83245 8.25199 4.8404 9.05549L4.85261 10.3071V10.3079C4.86199 11.1003 5.51941 11.7523 6.31257 11.7516L7.74975 11.7508V18.625C7.74975 19.4229 8.41018 20.0833 9.20808 20.0833H10.8747C11.6726 20.0833 12.3331 19.4229 12.3331 18.625V11.75H13.623C14.3579 11.75 14.9862 11.1901 15.0715 10.4601L15.2172 9.21011C15.3166 8.35447 14.6304 7.58332 13.7686 7.58332H12.3412L12.3591 6.21369C12.3591 6.21098 12.3591 6.20827 12.3591 6.20556C12.3591 5.91979 12.5763 5.70263 12.862 5.70263H14.0738C14.723 5.70263 15.2628 5.1629 15.2628 4.51366V2.60936C15.2628 1.99869 14.7877 1.47928 14.1804 1.42447H14.1788C14.0603 1.4141 13.2405 1.34879 12.2037 1.34879ZM12.2037 2.59879C13.1528 2.59879 14.0052 2.66697 14.0128 2.66714V4.45263H12.862C11.9011 4.45263 11.1091 5.24466 11.1091 6.20556L11.0831 8.20018C11.082 8.28294 11.0974 8.36509 11.1283 8.44185C11.1592 8.51862 11.2051 8.58848 11.2633 8.64738C11.3214 8.70628 11.3907 8.75304 11.467 8.78496C11.5434 8.81688 11.6253 8.83332 11.7081 8.83332H13.7686C13.9043 8.83332 13.9909 8.93172 13.9753 9.06607L13.8305 10.3153C13.8175 10.4261 13.7339 10.5 13.623 10.5H11.7081C11.5423 10.5 11.3834 10.5659 11.2662 10.6831C11.1489 10.8003 11.0831 10.9592 11.0831 11.125V18.625C11.0831 18.7479 10.9977 18.8333 10.8747 18.8333H9.20808C9.08514 18.8333 8.99975 18.7479 8.99975 18.625V11.125C8.99973 10.9592 8.93387 10.8003 8.81667 10.6831C8.69946 10.5659 8.5405 10.5 8.37475 10.5L6.31176 10.5016H6.31094C6.1904 10.5017 6.10472 10.416 6.10261 10.2941L6.0904 9.04328C6.08921 8.92012 6.17526 8.83332 6.29874 8.83332H8.37393C8.53969 8.83331 8.69865 8.76745 8.81585 8.65025C8.93306 8.53304 8.99891 8.37408 8.99893 8.20832V6.12499C8.99893 4.88922 9.30469 4.02433 9.8168 3.46793C10.3289 2.91152 11.0838 2.59879 12.2037 2.59879Z" fill="white"/>
</g>
<defs>
<clipPath id="clip0_98_3539">
<rect width="20" height="20" fill="white" transform="translate(0.666504 0.5)"/>
</clipPath>
</defs>
</svg>
