<svg width="32" height="32" viewBox="0 0 32 32" fill="none" xmlns="http://www.w3.org/2000/svg">
<g id="Farm 2">
<path id="Vector" d="M24.96 1.22998L21.4 2.65498L19.2 4.85498V7.67998C19.1825 7.67998 18.5225 7.65998 17.92 7.64248V7.03998C17.9225 6.86748 17.855 6.69998 17.7325 6.57748C17.61 6.45498 17.4425 6.38748 17.27 6.38998C16.9175 6.39748 16.635 6.68748 16.64 7.03998V7.62998C16.0175 7.62498 15.38 7.63748 14.72 7.65998V7.03998C14.7225 6.86748 14.655 6.69998 14.5325 6.57748C14.41 6.45498 14.2425 6.38748 14.07 6.38998C13.7175 6.39748 13.435 6.68748 13.44 7.03998V7.71748C12.495 7.76748 11.6475 7.83248 10.88 7.90748V7.03998C10.8825 6.86748 10.815 6.69998 10.6925 6.57748C10.57 6.45498 10.4025 6.38748 10.23 6.38998C9.87753 6.39748 9.59503 6.68748 9.60003 7.03998V8.04248C8.65503 8.15748 7.92503 8.26998 7.57503 8.32998C7.38003 8.36248 7.22503 8.39248 7.04003 8.42498V7.29748C7.04253 7.12248 6.97503 6.95748 6.85253 6.83498C6.73003 6.71248 6.56253 6.64498 6.39003 6.64748C6.03753 6.65248 5.75503 6.94248 5.76003 7.29748V8.65748C4.27503 8.94748 3.22003 9.21248 2.56003 9.39248V8.16998C2.59253 7.98498 2.54003 7.79248 2.41503 7.64748C2.29253 7.50248 2.11003 7.41998 1.92003 7.42248V8.70248L1.28003 8.06248V15.36C1.28003 15.415 1.28753 15.47 1.30003 15.5225C1.28753 15.575 1.28003 15.6275 1.28003 15.68V30.08C1.28003 30.4325 1.56753 30.72 1.92003 30.72H30.08C30.4325 30.72 30.72 30.4325 30.72 30.08V4.85498L28.52 2.65498L24.96 1.22998ZM24.96 2.60998L27.8 3.74498L29.44 5.38498V10.7425C29.005 10.695 28.5725 10.645 28.16 10.6075V7.03998C28.16 6.68748 27.8725 6.39998 27.52 6.39998H22.4C22.0475 6.39998 21.76 6.68748 21.76 7.03998V10.22C21.3025 10.2075 20.875 10.1975 20.48 10.19V5.38498L22.12 3.74498L24.96 2.60998ZM24.96 3.83998C24.6075 3.83998 24.32 4.12748 24.32 4.47998C24.32 4.83248 24.6075 5.11998 24.96 5.11998C25.3125 5.11998 25.6 4.83248 25.6 4.47998C25.6 4.12748 25.3125 3.83998 24.96 3.83998ZM23.04 7.67998H26.88V10.495C25.4075 10.375 24.1175 10.305 23.04 10.2625V7.67998ZM19.2 8.31998V10.17C18.785 10.1725 18.355 10.185 17.92 10.205V8.92498C18.515 8.93998 19.17 8.95998 19.17 8.95998L19.2 8.31998ZM15.8275 8.90748C16.115 8.90248 16.3675 8.90748 16.64 8.90998V10.2825C15.9625 10.335 15.32 10.4025 14.72 10.485V8.93998C15.0875 8.92748 15.455 8.90998 15.8275 8.90748ZM13.44 8.99998V10.6875C12.455 10.86 11.62 11.0575 10.88 11.25V9.19248C11.64 9.11748 12.4925 9.04998 13.44 8.99998ZM9.60003 9.33248V11.5875C8.69503 11.8225 7.86003 12.0525 7.04003 12.3225V9.72748C7.29253 9.67998 7.51003 9.63748 7.78503 9.58998C8.10253 9.53748 8.76503 9.43748 9.60003 9.33248ZM5.76003 9.96248V12.6725C5.76003 12.7125 5.76253 12.7525 5.77003 12.79C5.38503 12.9475 4.99753 13.1125 4.58503 13.31C4.58253 13.3125 4.58003 13.3125 4.57753 13.315C3.78753 13.71 3.12753 14.1025 2.56003 14.47V10.7175C3.09503 10.5625 4.16253 10.28 5.76003 9.96248ZM19.67 11.45C20.3275 11.455 21.1075 11.4825 21.9625 11.5075C19.4925 13.2125 16.475 15.935 13.5875 19.4325C11.8575 21.52 10.325 23.88 9.17753 25.8375C8.22753 27.4525 7.58253 28.7 7.25753 29.44H2.56003V24.2925C4.50753 21.87 7.30003 18.975 11.1275 16.1975H11.13L11.1325 16.195C14.0325 14.0525 16.8725 12.535 19.21 11.46L19.2075 11.4525C19.36 11.4525 19.5125 11.4475 19.67 11.45ZM24.2 11.615C24.7975 11.6475 25.345 11.675 26.0375 11.73C24.1825 13.755 22.025 16.4425 20.125 19.57H20.1275C17.9 23.22 16.515 26.665 15.55 29.44H8.68003C9.03003 28.73 9.57253 27.69 10.28 26.4825C11.4025 24.57 12.91 22.2575 14.5725 20.25V20.2475C18.04 16.05 21.76 12.9775 24.2 11.615ZM16.04 11.6175C14.2625 12.5625 12.3425 13.71 10.3775 15.1625C7.05253 17.575 4.49003 20.0725 2.56003 22.3V16.0375C3.22253 15.5675 4.02003 15.025 5.14253 14.4625H5.14503C5.14753 14.4625 5.14753 14.46 5.15003 14.46C6.94753 13.5925 8.35503 13.2275 10.3375 12.7175C10.34 12.715 10.345 12.715 10.35 12.7125C11.715 12.33 13.5775 11.86 16.04 11.6175ZM27.65 11.865C28.135 11.91 28.635 11.9625 29.1475 12.02C27.8475 14.805 26.5575 17.9525 25.3775 21.4925L25.38 21.4875C24.4125 24.2725 23.6775 26.935 23.11 29.44H16.91C17.8525 26.79 19.165 23.605 21.22 20.2375C23.295 16.8175 25.7225 13.88 27.65 11.865ZM29.44 14.4775V29.44H24.4225C24.9725 27.06 25.6725 24.54 26.59 21.9075V21.9C27.4925 19.1975 28.4575 16.73 29.44 14.4775Z" fill="#2973E2"/>
</g>
</svg>
