<svg width="32" height="32" viewBox="0 0 32 32" fill="none" xmlns="http://www.w3.org/2000/svg">
<g id="Income Tax" clip-path="url(#clip0_36_10822)">
<path id="Vector" d="M0.519965 6.3999C0.215325 6.4575 -0.00515471 6.72758 -3.47136e-05 7.0399V24.9599C-3.47136e-05 25.3125 0.287325 25.5999 0.639965 25.5999H31.36C31.7126 25.5999 32 25.3125 32 24.9599V7.0399C32 6.68726 31.7126 6.3999 31.36 6.3999H0.639965H0.579965H0.519965ZM1.27997 7.6799H30.72V24.3199H1.27997V7.6799ZM4.29996 10.2399C3.94733 10.2898 3.69941 10.6173 3.74997 10.9699C3.80053 11.3225 4.12733 11.5698 4.47997 11.5199H17.92C18.1497 11.5225 18.3647 11.4021 18.4825 11.2024C18.5977 11.0027 18.5977 10.7577 18.4825 10.5574C18.3647 10.3577 18.1497 10.2373 17.92 10.2399H4.47997H4.41997H4.35997H4.29996ZM25.09 12.1262C24.2972 12.1597 23.8336 12.4964 23.58 12.7837C22.906 13.5465 22.9214 14.8025 23.58 15.9999H22.4V17.2799H24.0225C23.9265 18.3468 22.7215 19.2781 22.6562 19.3274C22.4354 19.4925 22.3454 19.7813 22.4325 20.0424C22.5201 20.3042 22.7641 20.4799 23.04 20.4799H27.52V19.1999H24.5512C24.9525 18.6482 25.2602 17.9839 25.3025 17.2799H26.88V15.9999H25.045C24.9874 15.8815 24.9312 15.7633 24.8525 15.6449C24.2893 14.8001 24.252 13.9563 24.54 13.6299C24.8267 13.3073 25.6849 13.238 27.2337 14.0124L27.8062 12.8674C26.8321 12.3797 26.0592 12.1728 25.45 12.1312C25.3229 12.1225 25.2032 12.1214 25.09 12.1262ZM4.29996 12.7999C3.94733 12.8498 3.69941 13.1773 3.74997 13.5299C3.80053 13.8825 4.12733 14.1298 4.47997 14.0799H15.36C15.5897 14.0825 15.8047 13.9621 15.9225 13.7624C16.0377 13.5627 16.0377 13.3177 15.9225 13.1174C15.8047 12.9177 15.5897 12.7973 15.36 12.7999H4.47997H4.41997H4.35997H4.29996ZM3.83997 16.2824V17.2099H5.17122V22.2274H6.33121V17.2099H7.66997V16.2824H3.83997ZM9.19621 16.2824L7.52247 22.2274H8.69497L9.01247 20.9574H10.5812L10.9025 22.2274H12.075L10.405 16.2824H9.19621ZM12.235 16.2824L13.6762 19.2312L12.1987 22.2274H13.55L14.3825 20.1049H14.4075L15.24 22.2274H16.64L15.1012 19.2312L16.5425 16.2824H15.1987L14.39 18.3612H14.3662L13.57 16.2824H12.235ZM9.78496 17.9287H9.80871L10.3437 20.0312H9.24996L9.78496 17.9287Z" fill="#2973E2"/>
</g>
<defs>
<clipPath id="clip0_36_10822">
<rect width="32" height="32" fill="white"/>
</clipPath>
</defs>
</svg>
