<svg width="21" height="21" viewBox="0 0 21 21" fill="none" xmlns="http://www.w3.org/2000/svg">
<g id="Instagram">
<path id="Vector" d="M7.54142 2.58334C4.90242 2.58334 2.74976 4.73601 2.74976 7.37501V13.625C2.74976 16.2637 4.90234 18.4167 7.54142 18.4167H13.7914C16.4301 18.4167 18.5831 16.2637 18.5831 13.625V7.37501C18.5831 4.73593 16.4301 2.58334 13.7914 2.58334H7.54142ZM7.54142 3.83334H13.7914C15.7544 3.83334 17.3331 5.41159 17.3331 7.37501V13.625C17.3331 15.588 15.7544 17.1667 13.7914 17.1667H7.54142C5.578 17.1667 3.99976 15.588 3.99976 13.625V7.37501C3.99976 5.41151 5.57793 3.83334 7.54142 3.83334ZM14.8331 5.50001C14.3727 5.50001 13.9998 5.87293 13.9998 6.33334C13.9998 6.79376 14.3727 7.16668 14.8331 7.16668C15.2935 7.16668 15.6664 6.79376 15.6664 6.33334C15.6664 5.87293 15.2935 5.50001 14.8331 5.50001ZM10.6664 6.33334C8.37275 6.33334 6.49976 8.20633 6.49976 10.5C6.49976 12.7937 8.37275 14.6667 10.6664 14.6667C12.9601 14.6667 14.8331 12.7937 14.8331 10.5C14.8331 8.20633 12.9601 6.33334 10.6664 6.33334ZM10.6664 7.58334C12.2844 7.58334 13.5831 8.88202 13.5831 10.5C13.5831 12.118 12.2844 13.4167 10.6664 13.4167C9.04843 13.4167 7.74976 12.118 7.74976 10.5C7.74976 8.88202 9.04843 7.58334 10.6664 7.58334Z" fill="white"/>
</g>
</svg>
