<svg width="32" height="32" viewBox="0 0 32 32" fill="none" xmlns="http://www.w3.org/2000/svg">
<g id="Location">
<path id="Vector" d="M16 0.640015C10.3425 0.640015 5.76001 5.22251 5.76001 10.88C5.76001 15.5575 8.23001 20.585 10.66 24.48C13.09 28.375 15.52 31.14 15.52 31.14C15.6425 31.2775 15.8175 31.3575 16 31.3575C16.1825 31.3575 16.3575 31.2775 16.48 31.14C16.48 31.14 18.9125 28.3175 21.34 24.4C23.7675 20.4825 26.24 15.4675 26.24 10.88C26.24 5.22251 21.6575 0.640015 16 0.640015ZM16 1.92001C20.9675 1.92001 24.96 5.91251 24.96 10.88C24.96 14.9975 22.6325 19.8925 20.26 23.72C18.2725 26.9275 16.59 28.9925 16 29.7C15.405 28.9975 13.7225 26.9775 11.74 23.8C9.37001 20 7.04001 15.0975 7.04001 10.88C7.04001 5.91251 11.0325 1.92001 16 1.92001ZM16 7.04001C13.5325 7.04001 11.52 9.05251 11.52 11.52C11.52 13.9875 13.5325 16 16 16C18.4675 16 20.48 13.9875 20.48 11.52C20.48 9.05251 18.4675 7.04001 16 7.04001ZM16 8.32001C17.775 8.32001 19.2 9.74501 19.2 11.52C19.2 13.295 17.775 14.72 16 14.72C14.225 14.72 12.8 13.295 12.8 11.52C12.8 9.74501 14.225 8.32001 16 8.32001Z" fill="#2973E2"/>
</g>
</svg>
