<svg width="22" height="32" viewBox="0 0 22 32" fill="none" xmlns="http://www.w3.org/2000/svg">
<path id="Vector" d="M12.3188 0.00291113C12.2895 0.0082266 12.2603 0.0161988 12.2337 0.0241717C12.0344 0.0613779 11.8643 0.186283 11.766 0.36434L11.0006 1.68249L10.2352 0.36434C10.097 0.114529 9.81535 -0.0210068 9.53365 0.0241717C9.30775 0.0560624 9.11375 0.199571 9.01542 0.404204C8.91709 0.608836 8.92772 0.848017 9.04465 1.04468L10.214 3.02191L7.98163 6.8488C7.75573 6.88335 7.53781 6.96042 7.34381 7.06141L3.43188 0.36434C3.29368 0.114529 3.01198 -0.0210068 2.73028 0.0241717C2.50439 0.0560624 2.31038 0.199571 2.21205 0.404204C2.11372 0.608836 2.12435 0.848017 2.24129 1.04468L6.38709 8.14569C6.29939 8.37158 6.23826 8.61077 6.23826 8.86855V11.3348C2.61866 13.1047 0.115234 16.82 0.115234 21.1146C0.115234 27.1181 4.99718 32 11.0006 32C17.0041 32 21.886 27.1181 21.886 21.1146C21.886 16.82 19.3826 13.1047 15.763 11.3348V8.65594C15.7683 8.4832 15.7072 8.31578 15.5929 8.18821L19.76 1.04468C19.9486 0.715139 19.8344 0.297901 19.5048 0.109214C19.1753 -0.0794736 18.7581 0.0348019 18.5694 0.36434L13.9984 8.18821H8.78953L8.89583 7.99687C8.91178 7.97561 8.92506 7.95435 8.93835 7.93309C8.98087 7.88259 9.01808 7.82413 9.04465 7.763C9.05263 7.74174 9.0606 7.72048 9.06591 7.69922L11.4471 3.63846C11.463 3.6172 11.4763 3.59594 11.4896 3.57468C11.5853 3.48166 11.6517 3.36473 11.681 3.23451C11.6889 3.21325 11.6969 3.19199 11.7022 3.17073L12.9566 1.04468C13.0948 0.826757 13.0974 0.547712 12.9619 0.324476C12.8264 0.103899 12.5766 -0.0210068 12.3188 0.00291113ZM7.59894 9.54889H14.4023V10.782C13.3286 10.4285 12.1912 10.2292 11.0006 10.2292C9.81003 10.2292 8.67259 10.4285 7.59894 10.782V9.54889ZM11.0006 11.5899C12.3002 11.5899 13.5492 11.8424 14.6787 12.3128C14.6867 12.3207 14.692 12.326 14.7 12.334C14.7053 12.3367 14.7159 12.3314 14.7212 12.334C14.7744 12.3712 14.8302 12.3978 14.8913 12.4191C14.8966 12.4217 14.9072 12.4164 14.9126 12.4191C14.9258 12.427 14.9418 12.435 14.9551 12.4403C18.2478 13.9392 20.5253 17.2558 20.5253 21.1146C20.5253 26.3819 16.2679 30.6393 11.0006 30.6393C5.73333 30.6393 1.47591 26.3819 1.47591 21.1146C1.47591 17.2239 3.79596 13.8993 7.13121 12.4191C7.18436 12.3978 7.23485 12.3686 7.28003 12.334C8.42013 11.853 9.68247 11.5899 11.0006 11.5899ZM11.0006 12.9506C6.49871 12.9506 2.83658 16.6127 2.83658 21.1146C2.83658 25.6165 6.49871 29.2787 11.0006 29.2787C15.5025 29.2787 19.1647 25.6165 19.1647 21.1146C19.1647 16.6127 15.5025 12.9506 11.0006 12.9506ZM11.0006 14.3112C14.7664 14.3112 17.804 17.3488 17.804 21.1146C17.804 24.8804 14.7664 27.918 11.0006 27.918C7.23485 27.918 4.19725 24.8804 4.19725 21.1146C4.19725 17.3488 7.23485 14.3112 11.0006 14.3112ZM8.95961 17.7129V19.0736H10.3203V23.1556H8.95961V24.5163H13.0416V23.1556H11.681V19.0736H13.0416V17.7129H8.95961Z" fill="#2973E2"/>
</svg>
