<svg width="48" height="48" viewBox="0 0 48 48" fill="none" xmlns="http://www.w3.org/2000/svg">
<g id="Next page">
<path id="Vector" d="M23.9999 1.92C11.8237 1.92 1.91992 11.8237 1.91992 24C1.91992 36.1762 11.8237 46.08 23.9999 46.08C36.1762 46.08 46.0799 36.1762 46.0799 24C46.0799 11.8237 36.1762 1.92 23.9999 1.92ZM31.3987 24.6787L21.7987 34.2787C21.6112 34.4662 21.3674 34.56 21.1199 34.56C20.8724 34.56 20.6287 34.4662 20.4412 34.2787C20.0662 33.9037 20.0662 33.2962 20.4412 32.9212L29.3624 24L20.4412 15.0787C20.0662 14.7037 20.0662 14.0962 20.4412 13.7212C20.8162 13.3462 21.4237 13.3462 21.7987 13.7212L31.3987 23.3212C31.7737 23.6962 31.7737 24.3037 31.3987 24.6787Z" fill="white"/>
</g>
</svg>
