<svg width="18" height="19" viewBox="0 0 18 19" fill="none" xmlns="http://www.w3.org/2000/svg">
<g id="Icons">
<path id="Vector" d="M15.5303 8.96978L10.2802 3.71978C9.98737 3.4269 9.51263 3.4269 9.21975 3.71978C8.92688 4.01265 8.92688 4.4874 9.21975 4.78028L13.1895 8.75003H3C2.586 8.75003 2.25 9.08603 2.25 9.50003C2.25 9.91403 2.586 10.25 3 10.25H13.1895L9.21975 14.2198C8.92688 14.5127 8.92688 14.9874 9.21975 15.2803C9.36637 15.4269 9.558 15.5 9.75 15.5C9.942 15.5 10.1336 15.4269 10.2802 15.2803L15.5303 10.0303C15.8231 9.7374 15.8231 9.26265 15.5303 8.96978Z" fill="white"/>
</g>
</svg>
