<svg width="20" height="21" viewBox="0 0 20 21" fill="none" xmlns="http://www.w3.org/2000/svg">
<g id="Phone">
<path id="Vector" d="M7.93376 2.17237C7.65948 2.15242 7.37845 2.18045 7.10286 2.26189L6.11654 2.55405C5.06551 2.86488 4.24431 3.69879 3.96647 4.75131C3.34956 7.09204 4.05528 9.86263 5.89193 12.9813C7.72599 16.0957 9.81584 18.075 12.1761 18.721C13.239 19.012 14.3853 18.7341 15.1904 17.9862L15.9408 17.2904C16.7803 16.5108 16.9055 15.2125 16.2272 14.2899L15.1432 12.8177C14.5622 12.0285 13.5379 11.6925 12.596 11.9754L10.9001 12.4832C10.8289 12.504 10.6585 12.4071 10.5103 12.279L10.5094 12.2782C10.2454 12.0486 9.87953 11.5845 9.48812 10.9207V10.9199C9.06842 10.2071 8.88941 9.74096 8.81755 9.46567C8.74564 9.19025 8.76309 9.15675 8.7736 9.06365C8.77906 9.0172 8.80113 8.97416 8.8387 8.93995L8.83952 8.93914L10.1042 7.78273C10.8287 7.12037 11.0474 6.06189 10.6388 5.17123L9.8763 3.50782V3.50701C9.5173 2.72447 8.75636 2.23222 7.93376 2.17237ZM7.84342 3.41912C8.22601 3.4477 8.57831 3.67718 8.73942 4.02866L9.50277 5.69207C9.6875 6.09474 9.59486 6.55554 9.26107 6.86069L7.99642 8.01629C7.73716 8.25267 7.57137 8.57496 7.53174 8.92286V8.92368C7.52141 9.01516 7.49701 9.35538 7.60824 9.78142C7.71946 10.2075 7.94909 10.771 8.41064 11.5547H8.41146C8.84212 12.2851 9.24914 12.84 9.68994 13.223H9.69075C9.83391 13.3469 10.4339 13.9219 11.25 13.6836L11.2524 13.6828L12.9557 13.1725C13.398 13.0397 13.8709 13.1983 14.1366 13.5591L15.2205 15.0313C15.5275 15.4495 15.4739 16.0179 15.0903 16.374L14.34 17.0706C13.8601 17.5166 13.1476 17.6907 12.5057 17.515C10.5976 16.9927 8.7095 15.3021 6.9694 12.3473C5.22688 9.3885 4.68187 6.94126 5.17497 5.07032C5.33796 4.45284 5.83737 3.94027 6.47135 3.75278L7.45687 3.46062C7.58524 3.42269 7.7159 3.40959 7.84342 3.41912Z" fill="white"/>
</g>
</svg>
