<svg width="29" height="30" viewBox="0 0 29 30" fill="none" xmlns="http://www.w3.org/2000/svg">
<path id="Vector" d="M6.23906 0.919134C5.74656 0.879134 5.19906 1.02163 4.69406 1.37663C4.24906 1.68663 3.28906 2.44913 2.39156 3.31163C1.94406 3.74163 1.51656 4.18913 1.18656 4.62913C0.854064 5.06913 0.564064 5.47163 0.581564 6.05663C0.599064 6.58163 0.651564 8.13413 1.76906 10.5141C2.88656 12.8916 5.05406 16.1541 9.28156 20.3841C13.5116 24.6141 16.7741 26.7816 19.1516 27.8991C21.5291 29.0166 23.0841 29.0691 23.6091 29.0866C24.1916 29.1041 24.5941 28.8141 25.0341 28.4816C25.4741 28.1491 25.9216 27.7241 26.3516 27.2766C27.2116 26.3791 27.9741 25.4191 28.2841 24.9741C28.9916 23.9666 28.8741 22.7766 28.0866 22.2241C27.5916 21.8766 23.0391 18.8466 22.3541 18.4266C21.6591 18.0016 20.8591 18.1941 20.1441 18.5716C19.5816 18.8691 18.0591 19.7416 17.6241 19.9916C17.2966 19.7841 16.0541 18.9566 13.3816 16.2841C10.7066 13.6116 9.88156 12.3691 9.67406 12.0416C9.92406 11.6066 10.7941 10.0916 11.0941 9.51913C11.4691 8.80663 11.6791 7.99913 11.2316 7.29913C11.0441 7.00163 10.1916 5.70413 9.33156 4.40163C8.46906 3.09913 7.65156 1.86413 7.43906 1.56913V1.56663C7.16156 1.18413 6.72906 0.959134 6.23906 0.919134ZM6.12156 2.22663C6.29656 2.24913 6.40156 2.31913 6.40156 2.31913C6.50406 2.46163 7.40156 3.80663 8.26156 5.10663C9.12156 6.40913 9.99906 7.74413 10.1516 7.98663C10.1766 8.02413 10.2116 8.44913 9.96156 8.92163V8.92413C9.67906 9.46163 8.36156 11.7641 8.36156 11.7641L8.17906 12.0866L8.36656 12.4066C8.36656 12.4066 9.34906 14.0641 12.4741 17.1891C15.6016 20.3141 17.2591 21.2991 17.2591 21.2991L17.5791 21.4866L17.9016 21.3041C17.9016 21.3041 20.1991 19.9891 20.7416 19.7041C21.2141 19.4566 21.6391 19.4891 21.6891 19.5191C22.1316 19.7916 27.0491 23.0591 27.3516 23.2716C27.3616 23.2791 27.6291 23.6841 27.2391 24.2391H27.2366C27.0016 24.5766 26.2316 25.5541 25.4291 26.3891C25.0266 26.8066 24.6141 27.1966 24.2641 27.4591C23.9141 27.7216 23.6016 27.8041 23.6516 27.8066C23.1066 27.7891 21.9041 27.7766 19.6966 26.7391C17.4891 25.7041 14.3391 23.6316 10.1866 19.4766C6.03656 15.3266 3.96406 12.1766 2.92656 9.96663C1.89156 7.75913 1.87906 6.55663 1.86156 6.01413C1.86406 6.06413 1.94656 5.74913 2.20906 5.39913C2.47156 5.04913 2.85906 4.63413 3.27656 4.23163C4.11406 3.42913 5.08906 2.65913 5.42656 2.42413V2.42663C5.70406 2.23163 5.94656 2.20663 6.12156 2.22663Z" fill="#2973E2"/>
</svg>
