<svg width="32" height="32" viewBox="0 0 32 32" fill="none" xmlns="http://www.w3.org/2000/svg">
<path d="M15.9998 0.639893C10.3423 0.639893 5.75977 5.22239 5.75977 10.8799C5.75977 15.5574 8.22977 20.5849 10.6598 24.4799C13.0898 28.3749 15.5198 31.1399 15.5198 31.1399C15.6423 31.2774 15.8173 31.3574 15.9998 31.3574C16.1823 31.3574 16.3573 31.2774 16.4798 31.1399C16.4798 31.1399 18.9123 28.3174 21.3398 24.3999C23.7673 20.4824 26.2398 15.4674 26.2398 10.8799C26.2398 5.22239 21.6573 0.639893 15.9998 0.639893ZM15.9998 1.91989C20.9673 1.91989 24.9598 5.91239 24.9598 10.8799C24.9598 14.9974 22.6323 19.8924 20.2598 23.7199C18.2723 26.9274 16.5898 28.9924 15.9998 29.6999C15.4048 28.9974 13.7223 26.9774 11.7398 23.7999C9.36977 19.9999 7.03977 15.0974 7.03977 10.8799C7.03977 5.91239 11.0323 1.91989 15.9998 1.91989ZM15.9998 7.03989C13.5323 7.03989 11.5198 9.05239 11.5198 11.5199C11.5198 13.9874 13.5323 15.9999 15.9998 15.9999C18.4673 15.9999 20.4798 13.9874 20.4798 11.5199C20.4798 9.05239 18.4673 7.03989 15.9998 7.03989ZM15.9998 8.31989C17.7748 8.31989 19.1998 9.74489 19.1998 11.5199C19.1998 13.2949 17.7748 14.7199 15.9998 14.7199C14.2248 14.7199 12.7998 13.2949 12.7998 11.5199C12.7998 9.74489 14.2248 8.31989 15.9998 8.31989Z" fill="#676767"/>
</svg>
