<svg width="48" height="48" viewBox="0 0 48 48" fill="none" xmlns="http://www.w3.org/2000/svg">
<g id="Next page">
<path id="Vector" d="M24.0001 46.08C36.1763 46.08 46.0801 36.1763 46.0801 24C46.0801 11.8238 36.1763 1.92 24.0001 1.92C11.8238 1.92 1.92008 11.8237 1.92008 24C1.92008 36.1762 11.8238 46.08 24.0001 46.08ZM16.6013 23.3213L26.2013 13.7213C26.3888 13.5338 26.6326 13.44 26.8801 13.44C27.1276 13.44 27.3713 13.5338 27.5588 13.7213C27.9338 14.0963 27.9338 14.7038 27.5588 15.0788L18.6376 24L27.5588 32.9213C27.9338 33.2963 27.9338 33.9038 27.5588 34.2788C27.1838 34.6538 26.5763 34.6538 26.2013 34.2788L16.6013 24.6788C16.2263 24.3038 16.2263 23.6963 16.6013 23.3213Z" fill="white"/>
</g>
</svg>
