<svg width="18" height="19" viewBox="0 0 18 19" fill="none" xmlns="http://www.w3.org/2000/svg">
<g id="Icons">
<path id="Vector" d="M7.71966 15.2802C7.86628 15.4268 8.05791 15.4999 8.24991 15.4999C8.44191 15.4999 8.63353 15.4268 8.78016 15.2802C9.07303 14.9873 9.07303 14.5125 8.78016 14.2197L4.81041 10.2499H14.9999C15.4139 10.2499 15.7499 9.91391 15.7499 9.49991C15.7499 9.08591 15.4139 8.74991 14.9999 8.74991H4.81041L8.78016 4.78016C9.07303 4.48728 9.07303 4.01253 8.78016 3.71966C8.48728 3.42678 8.01253 3.42678 7.71966 3.71966L2.46966 8.96966C2.17678 9.26253 2.17678 9.73728 2.46966 10.0302L7.71966 15.2802Z" fill="black"/>
</g>
</svg>
