<svg width="18" height="19" viewBox="0 0 18 19" fill="none" xmlns="http://www.w3.org/2000/svg">
<g id="Icons">
<path id="Vector" d="M7.71978 15.2803C7.8664 15.4269 8.05803 15.5 8.25003 15.5C8.44203 15.5 8.63365 15.4269 8.78028 15.2803C9.07315 14.9874 9.07315 14.5127 8.78028 14.2198L4.81053 10.25H15C15.414 10.25 15.75 9.91403 15.75 9.50003C15.75 9.08603 15.414 8.75003 15 8.75003H4.81053L8.78028 4.78028C9.07315 4.4874 9.07315 4.01265 8.78028 3.71978C8.4874 3.4269 8.01265 3.4269 7.71978 3.71978L2.46978 8.96978C2.1769 9.26265 2.1769 9.7374 2.46978 10.0303L7.71978 15.2803Z" fill="white"/>
</g>
</svg>
