<svg width="48" height="48" viewBox="0 0 48 48" fill="none" xmlns="http://www.w3.org/2000/svg">
<g id="Quote Left">
<path id="Vector" d="M16.4824 8.99216C16.2972 8.99694 16.1144 9.03601 15.9434 9.10739C15.9434 9.10739 13.0684 10.2794 10.3574 13.4648C7.64643 16.6502 5 21.9274 5 30C4.99987 30.0732 5.00509 30.1463 5.01563 30.2187C4.97794 31.3571 5.16942 32.4914 5.5787 33.5543C5.98798 34.6172 6.6067 35.5871 7.39812 36.4062C8.18954 37.2253 9.13752 37.877 10.1857 38.3226C11.2339 38.7681 12.361 38.9985 13.5 39C15.7543 39 17.9164 38.1044 19.5104 36.5104C21.1045 34.9163 22 32.7543 22 30.5C22 28.2456 21.1045 26.0836 19.5104 24.4896C17.9164 22.8955 15.7543 22 13.5 22C11.7905 22.0004 10.1208 22.5164 8.70899 23.4804C9.57773 19.7771 11.1222 17.1966 12.6426 15.4101C14.9316 12.7205 17.0566 11.8925 17.0566 11.8925C17.3869 11.7659 17.6617 11.5267 17.8327 11.2171C18.0037 10.9075 18.0598 10.5474 17.9911 10.2005C17.9224 9.85357 17.7334 9.54205 17.4573 9.32096C17.1813 9.09986 16.836 8.98341 16.4824 8.99216ZM37.4824 8.99216C37.2972 8.99694 37.1144 9.03601 36.9434 9.10739C36.9434 9.10739 34.0684 10.2794 31.3574 13.4648C28.6464 16.6502 26 21.9274 26 30C25.9999 30.0732 26.0051 30.1463 26.0156 30.2187C25.9779 31.3571 26.1694 32.4914 26.5787 33.5543C26.988 34.6172 27.6067 35.5871 28.3981 36.4062C29.1895 37.2253 30.1375 37.877 31.1857 38.3226C32.2339 38.7681 33.361 38.9985 34.5 39C36.7543 39 38.9164 38.1044 40.5104 36.5104C42.1045 34.9163 43 32.7543 43 30.5C43 28.2456 42.1045 26.0836 40.5104 24.4896C38.9164 22.8955 36.7543 22 34.5 22C32.7905 22.0004 31.1208 22.5164 29.709 23.4804C30.5777 19.7771 32.1222 17.1966 33.6426 15.4101C35.9316 12.7205 38.0566 11.8925 38.0566 11.8925C38.3869 11.7659 38.6617 11.5267 38.8327 11.2171C39.0037 10.9075 39.0598 10.5474 38.9911 10.2005C38.9224 9.85357 38.7334 9.54205 38.4573 9.32096C38.1813 9.09986 37.836 8.98341 37.4824 8.99216Z" fill="#2973E2"/>
</g>
</svg>
