<svg width="20" height="20" viewBox="0 0 20 20" fill="none" xmlns="http://www.w3.org/2000/svg">
<g id="Remove">
<path id="Vector" d="M8.40039 0.800003C7.74258 0.800003 7.20039 1.34219 7.20039 2V2.8H4.06289C4.03945 2.79688 4.01758 2.79375 3.99414 2.79375C3.97539 2.79532 3.95508 2.79688 3.93633 2.8H3.20039C3.05664 2.79844 2.92227 2.87344 2.84883 2.99844C2.77695 3.12344 2.77695 3.27657 2.84883 3.40157C2.92227 3.52657 3.05664 3.60157 3.20039 3.6H3.60039V18C3.60039 18.6578 4.14258 19.2 4.80039 19.2H15.2004C15.8582 19.2 16.4004 18.6578 16.4004 18V3.6H16.8004C16.9441 3.60157 17.0785 3.52657 17.152 3.40157C17.2238 3.27657 17.2238 3.12344 17.152 2.99844C17.0785 2.87344 16.9441 2.79844 16.8004 2.8H16.0676C16.0238 2.79219 15.9801 2.79219 15.9379 2.8H12.8004V2C12.8004 1.34219 12.2582 0.800003 11.6004 0.800003H8.40039ZM8.40039 1.6H11.6004C11.8223 1.6 12.0004 1.77813 12.0004 2V2.8H8.00039V2C8.00039 1.77813 8.17852 1.6 8.40039 1.6ZM4.40039 3.6H7.5332C7.57695 3.60782 7.6207 3.60782 7.66289 3.6H12.3332C12.377 3.60782 12.4207 3.60782 12.4629 3.6H15.6004V18C15.6004 18.2219 15.4223 18.4 15.2004 18.4H4.80039C4.57852 18.4 4.40039 18.2219 4.40039 18V3.6ZM7.1957 7.99532C7.0332 7.99688 6.88789 8.09532 6.82539 8.24532C6.76445 8.39688 6.80039 8.56875 6.91758 8.68282L9.43477 11.2L6.91758 13.7172C6.81289 13.8172 6.7707 13.9672 6.8082 14.1063C6.84414 14.2469 6.95352 14.3563 7.09414 14.3922C7.2332 14.4297 7.3832 14.3875 7.4832 14.2828L10.0004 11.7656L12.5176 14.2828C12.6176 14.3875 12.7676 14.4297 12.9066 14.3922C13.0473 14.3563 13.1566 14.2469 13.1926 14.1063C13.2301 13.9672 13.1879 13.8172 13.0832 13.7172L10.566 11.2L13.0832 8.68282C13.202 8.56719 13.2363 8.39219 13.1723 8.24063C13.1082 8.0875 12.9582 7.99063 12.7926 7.99532C12.6879 7.99844 12.5895 8.04219 12.5176 8.11719L10.0004 10.6344L7.4832 8.11719C7.4082 8.03907 7.30508 7.99688 7.1957 7.99532Z" fill="black"/>
</g>
</svg>
