<svg width="48" height="48" viewBox="0 0 48 48" fill="none" xmlns="http://www.w3.org/2000/svg">
<g id="Restaurant">
<path id="Vector" d="M17.1263 0C14.8913 0 13.4026 0.2475 12.4426 0.5175C11.9626 0.64875 11.6138 0.787501 11.3701 0.90375C11.1301 1.02 10.9426 1.155 10.9426 1.155L10.6201 1.395L10.5676 1.8C10.5676 1.8 9.6001 9.47625 9.6001 14.4C9.6001 17.3625 11.0513 19.1287 12.3488 20.1975C13.0013 20.7337 13.6051 21.135 13.9726 21.4613C14.3401 21.7875 14.4001 21.9187 14.4001 22.08C14.4001 22.9837 14.1601 25.6575 13.9201 28.6237C13.6801 31.59 13.4363 34.9125 13.4401 37.44C13.4401 42.0075 13.7588 44.4675 14.4038 46.0012C14.7301 46.7663 15.1801 47.325 15.7351 47.64C16.2863 47.9587 16.8488 48 17.2801 48C17.7076 48 18.2738 47.9625 18.8251 47.6437C19.3801 47.3288 19.8338 46.7663 20.1563 46.0012C20.8013 44.4712 21.1238 42.0037 21.1201 37.44C21.1201 34.9162 20.8801 31.59 20.6401 28.6237C20.3963 25.6575 20.1601 22.9875 20.1601 22.08C20.1601 21.915 20.2163 21.795 20.5801 21.4762C20.9476 21.1575 21.5551 20.76 22.2038 20.2275C23.5088 19.1663 24.9601 17.3962 24.9601 14.4C24.9601 11.0513 23.9963 1.8225 23.9963 1.8225L23.9438 1.34625L23.5351 1.09875C23.5351 1.09875 22.9688 0.7725 21.9451 0.51C20.9213 0.2475 19.3613 0 17.1263 0ZM29.7638 0C29.5088 0 29.2651 0.10125 29.0813 0.28125C28.9013 0.46125 28.8001 0.705 28.8001 0.96V11.52C28.8001 12.195 28.8938 20.1562 28.8938 22.2262C28.8976 23.1112 28.6351 26.7675 28.3688 30.5512C28.1063 34.335 27.8401 38.3137 27.8401 40.32C27.8401 43.2262 27.9263 44.9175 28.2976 46.1063C28.4851 46.6987 28.7813 47.2162 29.2501 47.5462C29.7188 47.8762 30.2551 47.955 30.7201 47.955C30.7201 47.9587 30.7201 47.9587 30.7201 47.955C31.7851 47.955 33.1463 47.2837 34.0426 45.5513C34.9388 43.815 35.5201 41.0588 35.5201 36.48C35.5201 33.9037 35.0063 31.905 34.5151 30.3412C34.0238 28.7737 33.6001 27.6337 33.6001 26.88C33.6001 25.5375 34.6838 23.595 35.9138 21.3487C37.1476 19.1025 38.4676 16.5037 38.4713 13.515C38.4713 13.5112 38.4713 13.5112 38.4713 13.5112C38.4713 11.8387 38.2051 9.29625 37.0276 6.73875C35.8501 4.18125 33.7238 1.6125 30.1388 0.0787501C30.0188 0.02625 29.8913 0 29.7638 0ZM17.1263 1.92C17.5313 1.92 17.8876 1.935 18.2401 1.95V11.52C18.2363 11.865 18.4163 12.1875 18.7163 12.3637C19.0163 12.5363 19.3838 12.5363 19.6838 12.3637C19.9838 12.1875 20.1638 11.865 20.1601 11.52V2.1225C20.6776 2.20125 21.1313 2.28375 21.4688 2.37C21.9938 2.505 21.9901 2.535 22.1288 2.59875C22.2113 3.40875 23.0401 11.58 23.0401 14.4C23.0401 16.83 22.0913 17.8463 20.9926 18.7388C20.4451 19.1887 19.8526 19.5637 19.3163 20.0325C18.7801 20.5012 18.2401 21.1912 18.2401 22.08C18.2401 23.2762 18.4838 25.8225 18.7238 28.7812C18.9638 31.7362 19.2001 35.04 19.2001 37.44C19.2038 41.9062 18.8138 44.2425 18.3901 45.255C18.1763 45.7612 17.9963 45.9075 17.8726 45.9787C17.7488 46.05 17.5876 46.08 17.2838 46.08H17.2801C16.9763 46.08 16.8151 46.05 16.6913 45.975C16.5638 45.9037 16.3876 45.7575 16.1738 45.255C15.7501 44.2425 15.3601 41.9062 15.3601 37.44C15.3563 35.0363 15.5926 31.7362 15.8363 28.7812C16.0763 25.8263 16.3201 23.2762 16.3201 22.08C16.3201 21.1875 15.7838 20.5012 15.2513 20.025C14.7151 19.5525 14.1226 19.17 13.5713 18.7162C12.4726 17.8087 11.5201 16.7887 11.5201 14.4C11.5201 10.005 12.3188 3.37125 12.4163 2.5575C12.5588 2.4975 12.6863 2.44125 12.9601 2.3625C13.3088 2.265 13.7926 2.1675 14.4001 2.085V11.52C14.3963 11.865 14.5763 12.1875 14.8763 12.3637C15.1763 12.5363 15.5438 12.5363 15.8438 12.3637C16.1438 12.1875 16.3238 11.865 16.3201 11.52V1.9425C16.5863 1.935 16.8301 1.92 17.1263 1.92ZM30.7201 2.745C32.9026 4.065 34.4438 5.7225 35.2801 7.54125C36.3001 9.75375 36.5513 12.0487 36.5513 13.515C36.5476 15.9262 35.4376 18.2287 34.2301 20.4263C33.0263 22.6237 31.6801 24.6637 31.6801 26.88C31.6801 28.2225 32.2163 29.43 32.6851 30.915C33.1501 32.4 33.6001 34.155 33.6001 36.48C33.6001 40.89 32.9963 43.3913 32.3363 44.67C31.6763 45.945 31.1213 46.035 30.7201 46.035C30.4576 46.035 30.3901 45.9975 30.3601 45.9787C30.3301 45.96 30.2401 45.885 30.1313 45.5287C29.9063 44.82 29.7601 43.1737 29.7601 40.32C29.7601 38.4862 30.0226 34.4625 30.2851 30.6862C30.5476 26.9062 30.8176 23.4337 30.8138 22.2225C30.8138 20.1 30.7201 12.0225 30.7201 11.52V2.745Z" fill="#222222"/>
</g>
</svg>
