<svg width="48" height="48" viewBox="0 0 48 48" fill="none" xmlns="http://www.w3.org/2000/svg">
<g id="Restaurant Menu">
<path id="Vector" d="M4.8 3.83997C2.16 3.83997 0 5.99997 0 8.63997V36.48C0 39.12 2.16 41.28 4.8 41.28H20.16C21.7575 41.28 23.04 42.5775 23.04 44.16C23.04 44.4562 23.1787 44.7375 23.4112 44.9175C23.6475 45.1012 23.9512 45.165 24.24 45.09C24.4912 45.0262 24.7087 44.865 24.84 44.64C24.9225 44.4937 24.9637 44.3287 24.96 44.16C24.96 42.5775 26.2425 41.28 27.84 41.28H43.2C45.84 41.28 48 39.12 48 36.48V8.63997C48 5.99997 45.84 3.83997 43.2 3.83997H27.84C26.2725 3.83997 24.8775 4.61997 24 5.78997C23.1225 4.61997 21.7275 3.83997 20.16 3.83997H4.8ZM4.8 5.75997H20.16C21.7612 5.75997 23.04 7.03872 23.04 8.63997V40.44C22.2262 39.8062 21.2625 39.36 20.16 39.36H4.8C3.19875 39.36 1.92 38.0812 1.92 36.48V8.63997C1.92 7.03872 3.19875 5.75997 4.8 5.75997ZM27.84 5.75997H43.2C44.8012 5.75997 46.08 7.03872 46.08 8.63997V36.48C46.08 38.0812 44.8012 39.36 43.2 39.36H27.84C26.7375 39.36 25.7737 39.8062 24.96 40.44V8.63997C24.96 7.03872 26.2387 5.75997 27.84 5.75997ZM11.91 8.63997C10.9612 8.63997 10.1363 9.06372 9.48 9.65997C8.82375 10.2562 8.3175 11.0025 7.92 11.85C7.125 13.5412 6.72 15.5625 6.72 17.28C6.72 19.725 7.62 21.1275 8.46 21.9C8.88 22.2862 9.2475 22.5375 9.42 22.71C9.5925 22.8825 9.6 22.8637 9.6 23.04V30.72C9.6 32.7937 9.67125 34.02 9.99 34.95C10.1475 35.415 10.4062 35.8425 10.8 36.12C11.1937 36.3975 11.6587 36.48 12.03 36.48C12.4387 36.48 12.915 36.3712 13.29 36.06C13.665 35.7487 13.8937 35.3287 14.04 34.86C14.3325 33.9225 14.4 32.67 14.4 30.72V23.04C14.4 22.8637 14.3812 22.8787 14.55 22.71C14.7187 22.5412 15.0862 22.3125 15.51 21.93C16.3575 21.165 17.28 19.7625 17.28 17.28C17.28 15.4387 16.8337 13.4287 15.99 11.76C15.1462 10.0912 13.7775 8.63997 11.91 8.63997ZM11.91 10.56C12.7612 10.56 13.605 11.2687 14.28 12.6C14.955 13.9312 15.36 15.7612 15.36 17.28C15.36 19.3575 14.8425 19.9537 14.25 20.49C13.9537 20.7562 13.6012 20.9962 13.23 21.36C12.8587 21.7237 12.48 22.3387 12.48 23.04V30.72C12.48 32.61 12.3675 33.7575 12.21 34.26C12.1312 34.5112 12.045 34.5712 12.06 34.56C12.075 34.5487 12.1425 34.56 12.03 34.56C11.88 34.56 11.8875 34.545 11.91 34.56C11.9325 34.575 11.8987 34.575 11.82 34.35C11.6662 33.9 11.52 32.7262 11.52 30.72V23.04C11.52 22.3387 11.1675 21.7312 10.8 21.36C10.4325 20.9887 10.08 20.7337 9.78 20.46C9.18 19.9125 8.64 19.3162 8.64 17.28C8.64 15.8775 9.015 14.0587 9.66 12.69C9.9825 12.0075 10.3762 11.4262 10.77 11.07C11.1637 10.7137 11.4975 10.56 11.91 10.56ZM28.53 11.52C28.0012 11.595 27.63 12.0862 27.705 12.615C27.78 13.1437 28.2712 13.515 28.8 13.44H37.44C37.785 13.4437 38.1075 13.2637 38.2837 12.9637C38.4562 12.6637 38.4562 12.2962 38.2837 11.9962C38.1075 11.6962 37.785 11.5162 37.44 11.52H28.8C28.77 11.52 28.74 11.52 28.71 11.52C28.68 11.52 28.65 11.52 28.62 11.52C28.59 11.52 28.56 11.52 28.53 11.52ZM41.01 11.52C40.4812 11.595 40.11 12.0862 40.185 12.615C40.26 13.1437 40.7512 13.515 41.28 13.44H42.24C42.585 13.4437 42.9075 13.2637 43.0837 12.9637C43.2562 12.6637 43.2562 12.2962 43.0837 11.9962C42.9075 11.6962 42.585 11.5162 42.24 11.52H41.28C41.25 11.52 41.22 11.52 41.19 11.52C41.16 11.52 41.13 11.52 41.1 11.52C41.07 11.52 41.04 11.52 41.01 11.52ZM28.53 16.32C28.0012 16.395 27.63 16.8862 27.705 17.415C27.78 17.9437 28.2712 18.315 28.8 18.24H37.44C37.785 18.2437 38.1075 18.0637 38.2837 17.7637C38.4562 17.4637 38.4562 17.0962 38.2837 16.7962C38.1075 16.4962 37.785 16.3162 37.44 16.32H28.8C28.77 16.32 28.74 16.32 28.71 16.32C28.68 16.32 28.65 16.32 28.62 16.32C28.59 16.32 28.56 16.32 28.53 16.32ZM41.01 16.32C40.4812 16.395 40.11 16.8862 40.185 17.415C40.26 17.9437 40.7512 18.315 41.28 18.24H42.24C42.585 18.2437 42.9075 18.0637 43.0837 17.7637C43.2562 17.4637 43.2562 17.0962 43.0837 16.7962C42.9075 16.4962 42.585 16.3162 42.24 16.32H41.28C41.25 16.32 41.22 16.32 41.19 16.32C41.16 16.32 41.13 16.32 41.1 16.32C41.07 16.32 41.04 16.32 41.01 16.32ZM28.53 21.12C28.0012 21.195 27.63 21.6862 27.705 22.215C27.78 22.7437 28.2712 23.115 28.8 23.04H37.44C37.785 23.0437 38.1075 22.8637 38.2837 22.5637C38.4562 22.2637 38.4562 21.8962 38.2837 21.5962C38.1075 21.2962 37.785 21.1162 37.44 21.12H28.8C28.77 21.12 28.74 21.12 28.71 21.12C28.68 21.12 28.65 21.12 28.62 21.12C28.59 21.12 28.56 21.12 28.53 21.12ZM41.01 21.12C40.4812 21.195 40.11 21.6862 40.185 22.215C40.26 22.7437 40.7512 23.115 41.28 23.04H42.24C42.585 23.0437 42.9075 22.8637 43.0837 22.5637C43.2562 22.2637 43.2562 21.8962 43.0837 21.5962C42.9075 21.2962 42.585 21.1162 42.24 21.12H41.28C41.25 21.12 41.22 21.12 41.19 21.12C41.16 21.12 41.13 21.12 41.1 21.12C41.07 21.12 41.04 21.12 41.01 21.12ZM28.53 25.92C28.0012 25.995 27.63 26.4862 27.705 27.015C27.78 27.5437 28.2712 27.915 28.8 27.84H37.44C37.785 27.8437 38.1075 27.6637 38.2837 27.3637C38.4562 27.0637 38.4562 26.6962 38.2837 26.3962C38.1075 26.0962 37.785 25.9162 37.44 25.92H28.8C28.77 25.92 28.74 25.92 28.71 25.92C28.68 25.92 28.65 25.92 28.62 25.92C28.59 25.92 28.56 25.92 28.53 25.92ZM41.01 25.92C40.4812 25.995 40.11 26.4862 40.185 27.015C40.26 27.5437 40.7512 27.915 41.28 27.84H42.24C42.585 27.8437 42.9075 27.6637 43.0837 27.3637C43.2562 27.0637 43.2562 26.6962 43.0837 26.3962C42.9075 26.0962 42.585 25.9162 42.24 25.92H41.28C41.25 25.92 41.22 25.92 41.19 25.92C41.16 25.92 41.13 25.92 41.1 25.92C41.07 25.92 41.04 25.92 41.01 25.92ZM28.53 30.72C28.0012 30.795 27.63 31.2862 27.705 31.815C27.78 32.3437 28.2712 32.715 28.8 32.64H37.44C37.785 32.6437 38.1075 32.4637 38.2837 32.1637C38.4562 31.8637 38.4562 31.4962 38.2837 31.1962C38.1075 30.8962 37.785 30.7162 37.44 30.72H28.8C28.77 30.72 28.74 30.72 28.71 30.72C28.68 30.72 28.65 30.72 28.62 30.72C28.59 30.72 28.56 30.72 28.53 30.72ZM41.01 30.72C40.4812 30.795 40.11 31.2862 40.185 31.815C40.26 32.3437 40.7512 32.715 41.28 32.64H42.24C42.585 32.6437 42.9075 32.4637 43.0837 32.1637C43.2562 31.8637 43.2562 31.4962 43.0837 31.1962C42.9075 30.8962 42.585 30.7162 42.24 30.72H41.28C41.25 30.72 41.22 30.72 41.19 30.72C41.16 30.72 41.13 30.72 41.1 30.72C41.07 30.72 41.04 30.72 41.01 30.72Z" fill="black"/>
</g>
</svg>
