<svg width="32" height="32" viewBox="0 0 32 32" fill="none" xmlns="http://www.w3.org/2000/svg">
<g id="Sheriff">
<path id="Vector" d="M16.0001 0.640015C15.2926 0.640015 14.7201 1.21251 14.7201 1.92001C14.7201 2.15251 14.7901 2.37251 14.9001 2.56001L11.6601 8.32001H4.94006C4.71756 7.93751 4.31256 7.68001 3.84006 7.68001C3.13256 7.68001 2.56006 8.25251 2.56006 8.96001C2.56006 9.66751 3.13256 10.24 3.84006 10.24C3.93506 10.24 4.03006 10.24 4.12006 10.22L7.40006 16L4.12006 21.78C4.03006 21.76 3.93506 21.76 3.84006 21.76C3.13256 21.76 2.56006 22.3325 2.56006 23.04C2.56006 23.7475 3.13256 24.32 3.84006 24.32C4.31256 24.32 4.71756 24.0625 4.94006 23.68H11.6601L14.9001 29.44C14.7901 29.6275 14.7201 29.8475 14.7201 30.08C14.7201 30.7875 15.2926 31.36 16.0001 31.36C16.7076 31.36 17.2801 30.7875 17.2801 30.08C17.2801 29.8475 17.2101 29.6275 17.1001 29.44L20.3401 23.68H27.0601C27.2826 24.0625 27.6876 24.32 28.1601 24.32C28.8676 24.32 29.4401 23.7475 29.4401 23.04C29.4401 22.3325 28.8676 21.76 28.1601 21.76C28.0651 21.76 27.9701 21.76 27.8801 21.78L24.6001 16L27.8801 10.22C27.9701 10.24 28.0651 10.24 28.1601 10.24C28.8676 10.24 29.4401 9.66751 29.4401 8.96001C29.4401 8.25251 28.8676 7.68001 28.1601 7.68001C27.6876 7.68001 27.2826 7.93751 27.0601 8.32001H20.3401L17.1001 2.56001C17.2101 2.37251 17.2801 2.15251 17.2801 1.92001C17.2801 1.21251 16.7076 0.640015 16.0001 0.640015ZM16.0001 3.24001L19.4201 9.28001C19.5326 9.47251 19.7376 9.59501 19.9601 9.60001H26.7401L23.3201 15.68C23.2051 15.8775 23.2051 16.1225 23.3201 16.32L26.7401 22.4H19.9601C19.7376 22.405 19.5326 22.5275 19.4201 22.72L16.0001 28.76L12.5801 22.72C12.4676 22.5275 12.2626 22.405 12.0401 22.4H5.26006L8.68006 16.32C8.79506 16.1225 8.79506 15.8775 8.68006 15.68L5.26006 9.60001H12.0401C12.2626 9.59501 12.4676 9.47251 12.5801 9.28001L16.0001 3.24001ZM16.0001 9.60001C12.4576 9.60001 9.60006 12.4575 9.60006 16C9.60006 19.5425 12.4576 22.4 16.0001 22.4C19.5426 22.4 22.4001 19.5425 22.4001 16C22.4001 12.4575 19.5426 9.60001 16.0001 9.60001ZM16.0001 10.88C18.8576 10.88 21.1201 13.1425 21.1201 16C21.1201 18.8575 18.8576 21.12 16.0001 21.12C13.1426 21.12 10.8801 18.8575 10.8801 16C10.8801 13.1425 13.1426 10.88 16.0001 10.88ZM16.0001 12.16C13.8726 12.16 12.1601 13.8725 12.1601 16C12.1601 18.1275 13.8726 19.84 16.0001 19.84C18.1276 19.84 19.8401 18.1275 19.8401 16C19.8401 13.8725 18.1276 12.16 16.0001 12.16ZM16.0001 13.44C17.4576 13.44 18.5601 14.5425 18.5601 16C18.5601 17.4575 17.4576 18.56 16.0001 18.56C14.5426 18.56 13.4401 17.4575 13.4401 16C13.4401 14.5425 14.5426 13.44 16.0001 13.44Z" fill="#2973E2"/>
</g>
</svg>
