<svg width="20" height="21" viewBox="0 0 20 21" fill="none" xmlns="http://www.w3.org/2000/svg">
<g id="Shopping Bag">
<path id="Vector" d="M9.58332 1.33334C7.66052 1.33334 6.06652 2.79754 5.85773 4.66668H4.99998C4.03665 4.66668 3.23475 5.38885 3.13475 6.34718L2.09308 16.3472C2.03808 16.8743 2.21009 17.4028 2.56509 17.7974C2.92009 18.1911 3.42832 18.4167 3.95832 18.4167H16.0417C16.5717 18.4167 17.0799 18.1911 17.4349 17.7974C17.7899 17.4032 17.9611 16.8743 17.9061 16.3472L16.8652 6.34718C16.7652 5.38885 15.9633 4.66668 15 4.66668H14.1471C14.16 4.80418 14.1667 4.94334 14.1667 5.08334V5.91668H15C15.3212 5.91668 15.5884 6.1578 15.6217 6.47739L16.6634 16.4774C16.6817 16.6532 16.6242 16.8291 16.5063 16.96C16.388 17.0912 16.2183 17.1667 16.0417 17.1667H3.95832C3.78165 17.1667 3.61237 17.0916 3.49445 16.9608C3.37612 16.8295 3.31824 16.6532 3.33657 16.4774L4.37824 6.47739C4.41157 6.1578 4.67873 5.91668 4.99998 5.91668H5.83332V7.37501C5.83215 7.45783 5.84745 7.54006 5.87833 7.61691C5.90921 7.69377 5.95506 7.76372 6.01322 7.8227C6.07137 7.88168 6.14066 7.92852 6.21708 7.96048C6.29349 7.99245 6.37549 8.00891 6.45832 8.00891C6.54114 8.00891 6.62315 7.99245 6.69956 7.96048C6.77597 7.92852 6.84526 7.88168 6.90342 7.8227C6.96157 7.76372 7.00742 7.69377 7.0383 7.61691C7.06919 7.54006 7.08449 7.45783 7.08332 7.37501V5.08334C7.08332 3.69531 8.19528 2.58334 9.58332 2.58334C10.8291 2.58334 11.85 3.47963 12.0467 4.66668H7.97199C7.93699 4.80001 7.91665 4.93918 7.91665 5.08334V5.91668H12.0833V7.37501C12.0821 7.45783 12.0974 7.54006 12.1283 7.61691C12.1592 7.69377 12.2051 7.76372 12.2632 7.8227C12.3214 7.88168 12.3907 7.92852 12.4671 7.96048C12.5435 7.99245 12.6255 8.00891 12.7083 8.00891C12.7911 8.00891 12.8731 7.99245 12.9496 7.96048C13.026 7.92852 13.0953 7.88168 13.1534 7.8227C13.2116 7.76372 13.2574 7.69377 13.2883 7.61691C13.3192 7.54006 13.3345 7.45783 13.3333 7.37501V5.08334C13.3333 3.01971 11.6469 1.33334 9.58332 1.33334Z" fill="white"/>
</g>
</svg>
