<svg width="32" height="32" viewBox="0 0 32 32" fill="none" xmlns="http://www.w3.org/2000/svg">
<g id="Tax">
<path id="Vector" d="M21.8 1.93994C20.9775 1.93994 20.15 2.24994 19.52 2.87994L18.24 4.15994C17.6075 4.79244 17.345 5.64244 17.38 6.49994L15.98 7.89994L14.62 6.55994C14.6475 5.70994 14.3875 4.84744 13.76 4.21994L12.48 2.93994C11.85 2.30994 11.0225 1.99994 10.2 1.99994C9.37754 1.99994 8.57004 2.30994 7.94004 2.93994C6.68004 4.19994 6.68004 6.23994 7.94004 7.49994L9.22004 8.77994C9.84254 9.40244 10.6775 9.64244 11.52 9.61994L14.08 12.1599H1.92004V28.7999H30.08V12.1599H20.24L19.06 10.9799L20.48 9.55994C21.3225 9.58244 22.1575 9.32244 22.78 8.69994L24.06 7.41994C25.32 6.15994 25.32 4.13994 24.06 2.87994C23.43 2.24994 22.6225 1.93994 21.8 1.93994ZM21.8 3.17994C22.2875 3.17994 22.765 3.38494 23.16 3.77994C23.9475 4.56744 23.9475 5.73244 23.16 6.51994L21.88 7.79994C21.455 8.22494 20.8175 8.41244 20.26 8.31994C20.055 8.28494 19.8475 8.35244 19.7 8.49994L18.14 10.0599L16.88 8.79994L18.44 7.23994C18.5875 7.09244 18.655 6.88494 18.62 6.67994C18.5275 6.12244 18.715 5.48494 19.14 5.05994L20.42 3.77994C20.815 3.38494 21.3125 3.17994 21.8 3.17994ZM10.2 3.25994C10.6875 3.25994 11.185 3.44494 11.58 3.83994L12.86 5.11994C13.285 5.54494 13.4725 6.18244 13.38 6.73994C13.345 6.94494 13.4125 7.15244 13.56 7.29994L22.74 16.4799C23.3725 17.0599 23.68 17.8149 23.68 18.6799V19.8799L20.94 17.1599V17.1399L20.86 17.0799L19.6 15.8399L12.3 8.57994C12.1525 8.43244 11.945 8.36494 11.74 8.39994C11.1825 8.49244 10.545 8.28494 10.12 7.85994L8.84004 6.57994C8.05254 5.79244 8.05254 4.62744 8.84004 3.83994C9.23504 3.44494 9.71254 3.25994 10.2 3.25994ZM10.6 4.57994C10.36 4.57994 10.1125 4.66744 9.92004 4.85994C9.53504 5.24494 9.53504 5.81494 9.92004 6.19994L10.56 6.83994C10.88 7.15994 11.515 7.15994 11.9 6.83994C12.285 6.45494 12.285 5.88494 11.9 5.49994L11.26 4.85994C11.0675 4.66744 10.84 4.57994 10.6 4.57994ZM21.4 4.57994C21.16 4.57994 20.9325 4.66744 20.74 4.85994L20.1 5.49994C19.78 5.81994 19.78 6.45494 20.1 6.83994C20.485 7.22494 21.055 7.22494 21.44 6.83994L22.08 6.19994C22.465 5.81494 22.465 5.24494 22.08 4.85994C21.8875 4.66744 21.64 4.57994 21.4 4.57994ZM16 10.2399C15.61 10.2399 15.3 10.5499 15.3 10.9399C15.3 11.3299 15.61 11.6399 16 11.6399C16.39 11.6399 16.7 11.3299 16.7 10.9399C16.7 10.5499 16.39 10.2399 16 10.2399ZM3.20004 13.4399H4.70004C4.56004 13.6899 4.46004 13.9249 4.38004 14.0999C4.31504 14.2474 4.24504 14.3399 4.24004 14.3599V14.3799L4.22004 14.3999C4.23754 14.3824 4.09754 14.4774 3.90004 14.5599C3.70754 14.6399 3.46254 14.7399 3.20004 14.8599V13.4399ZM6.78004 13.4399H15.34L15.36 13.4599V14.1199C12.4575 14.4699 10.24 17.2074 10.24 20.4799C10.24 23.7524 12.46 26.4874 15.36 26.8399V27.5199H6.78004C6.20254 27.5199 6.07254 27.3274 5.86004 26.9599C5.75504 26.7749 5.65754 26.5499 5.56004 26.3199C5.46254 26.0899 5.36754 25.8474 5.12004 25.5999L5.08004 25.5599C4.83254 25.3474 4.61504 25.2874 4.38004 25.1999C4.14504 25.1124 3.90004 25.0274 3.70004 24.9399C3.50004 24.8524 3.35254 24.7524 3.28004 24.6799C3.20754 24.6074 3.20004 24.6024 3.20004 24.5199V16.4399C3.20004 16.3974 3.21004 16.3799 3.22004 16.3599C3.23004 16.3399 3.24254 16.3174 3.28004 16.2799C3.35504 16.2049 3.51754 16.1124 3.72004 16.0199C3.92254 15.9274 4.16004 15.8399 4.40004 15.7399C4.62504 15.6474 4.85504 15.5474 5.08004 15.3399V15.3199C5.09254 15.3099 5.10754 15.3099 5.12004 15.2999C5.36004 15.0749 5.46504 14.8299 5.56004 14.6199C5.66004 14.3949 5.73504 14.1799 5.84004 13.9999C5.89254 13.9099 5.94754 13.8299 6.00004 13.7599C6.05254 13.6899 6.11254 13.6274 6.18004 13.5799C6.31504 13.4849 6.49004 13.4399 6.78004 13.4399ZM21.52 13.4399H25.22C25.7975 13.4399 25.9475 13.6374 26.16 13.9999C26.265 14.1799 26.34 14.3949 26.44 14.6199C26.535 14.8299 26.64 15.0749 26.88 15.2999C26.8925 15.3124 26.9075 15.3074 26.92 15.3199C26.925 15.3249 26.915 15.3349 26.92 15.3399C27.145 15.5474 27.375 15.6474 27.6 15.7399C27.84 15.8399 28.0775 15.9274 28.28 16.0199C28.4825 16.1124 28.645 16.2049 28.72 16.2799C28.795 16.3549 28.8 16.3574 28.8 16.4399V24.4399C28.8 24.5224 28.795 24.5449 28.72 24.6199C28.645 24.6949 28.4825 24.7874 28.28 24.8799C28.0775 24.9724 27.84 25.0599 27.6 25.1599C27.36 25.2599 27.1225 25.3574 26.88 25.5999C26.6325 25.8474 26.5375 26.0899 26.44 26.3199C26.3425 26.5499 26.245 26.7749 26.14 26.9599C25.9275 27.3274 25.7975 27.5199 25.22 27.5199H16.64V26.8399C19.54 26.4874 21.76 23.7524 21.76 20.4799C21.76 20.2374 21.7225 19.9974 21.7 19.7599L23.86 21.8999C24.0425 22.0899 24.325 22.1474 24.5675 22.0449C24.81 21.9449 24.965 21.7024 24.96 21.4399V18.6799C24.96 18.5324 24.955 18.3849 24.94 18.2399C24.8425 17.2249 24.3975 16.2624 23.62 15.5399L21.52 13.4399ZM27.3 13.4399H28.8V14.8599C28.5375 14.7399 28.2925 14.6399 28.1 14.5599C27.9025 14.4774 27.7625 14.3824 27.78 14.3999L27.76 14.3799V14.3599C27.755 14.3399 27.685 14.2474 27.62 14.0999C27.54 13.9249 27.44 13.6899 27.3 13.4399ZM15.36 15.4199V17.2799H16.64V15.4399C16.99 15.5099 17.345 15.6199 17.68 15.7799L19.1 17.1599L19.9 17.9399V17.9599C20.2575 18.6699 20.48 19.5399 20.48 20.4799C20.48 23.1149 18.7775 25.1874 16.64 25.5399V23.6799H15.36V25.5399C13.2225 25.1874 11.52 23.1149 11.52 20.4799C11.52 17.8449 13.2225 15.7724 15.36 15.4199ZM15.36 18.5599V22.3999H16.64V18.5599H15.36ZM28.8 26.0399V27.5199H27.3C27.44 27.2599 27.54 27.0074 27.62 26.8199C27.71 26.6124 27.8025 26.4774 27.78 26.4999C27.7625 26.5174 27.9025 26.4224 28.1 26.3399C28.2925 26.2599 28.5375 26.1599 28.8 26.0399ZM3.20004 26.0999C3.46504 26.2149 3.72004 26.3049 3.92004 26.3799C4.11004 26.4499 4.24004 26.5249 4.24004 26.5199C4.23504 26.5199 4.29754 26.6274 4.38004 26.8199C4.46004 27.0074 4.56004 27.2599 4.70004 27.5199H3.20004V26.0999Z" fill="#2973E2"/>
</g>
</svg>
