<svg width="21" height="21" viewBox="0 0 21 21" fill="none" xmlns="http://www.w3.org/2000/svg">
<g id="Twitter">
<path id="Vector" d="M13.9997 3C11.7366 3 9.89999 4.82864 9.85096 7.0804C7.85003 6.84042 6.54706 6.09229 5.74777 5.35514C4.86139 4.53766 4.58078 3.81136 4.58078 3.81136C4.53982 3.70814 4.47209 3.6177 4.38457 3.54934C4.29706 3.48098 4.19291 3.43717 4.08284 3.42242C3.97277 3.40767 3.86076 3.4225 3.75833 3.4654C3.6559 3.5083 3.56675 3.57772 3.50005 3.6665C3.50005 3.6665 2.74973 4.66667 2.74973 6.125C2.74973 6.95874 3.01297 7.57565 3.32671 8.09847C3.31515 8.09306 3.23719 8.06592 3.23719 8.06592C3.13758 8.01618 3.02649 7.99396 2.91541 8.00154C2.80433 8.00912 2.69729 8.04623 2.60536 8.10904C2.51343 8.17185 2.43995 8.25807 2.3925 8.3588C2.34506 8.45952 2.32538 8.57109 2.3355 8.68197C2.3355 8.68197 2.57606 10.4404 4.22922 11.7256L4.05669 11.7687C3.96304 11.7921 3.87608 11.8368 3.80262 11.8995C3.72916 11.9621 3.6712 12.0409 3.63328 12.1296C3.59536 12.2184 3.57851 12.3147 3.58406 12.4111C3.58961 12.5075 3.6174 12.6012 3.66525 12.6851C3.66525 12.6851 3.94558 13.1593 4.53277 13.6584C4.88091 13.9543 5.39234 14.2597 5.99517 14.5422C5.25484 14.8127 4.1509 15.0833 2.54139 15.0833C2.42129 15.0833 2.30373 15.1179 2.20277 15.183C2.10181 15.248 2.02172 15.3408 1.9721 15.4501C1.92248 15.5595 1.90542 15.6809 1.92296 15.7997C1.9405 15.9185 1.99191 16.0297 2.07102 16.1201C2.07102 16.1201 2.54861 16.6463 3.49273 17.104C4.43684 17.5618 5.89117 18 7.95806 18C11.5913 18 14.2017 16.2571 15.8308 14.0482C17.4599 11.8392 18.1664 9.19213 18.1664 7.16667C18.1664 7.03814 18.1584 6.91143 18.1469 6.78581C19.0265 5.93817 19.3567 5.30093 19.3724 5.26969C19.4516 5.11094 19.4221 4.92029 19.2992 4.79362C19.1767 4.66654 18.9868 4.63075 18.8256 4.70492L18.758 4.73584C18.7001 4.76251 18.6422 4.78934 18.5839 4.81559C18.7535 4.54518 18.8873 4.2562 18.9802 3.95703C19.0319 3.79203 18.9761 3.61122 18.8394 3.50456C18.7027 3.39789 18.5145 3.38647 18.3666 3.47689C17.8573 3.7864 17.3692 4.00308 16.8611 4.14827C16.1133 3.43895 15.1068 3 13.9997 3ZM13.9997 4.25C15.6177 4.25 16.9164 5.54868 16.9164 7.16667C16.9164 8.8912 16.2687 11.3483 14.8249 13.306C13.3811 15.2637 11.1999 16.75 7.95806 16.75C6.38923 16.75 5.34564 16.4662 4.56369 16.1592C5.38279 16.032 6.08804 15.8622 6.59494 15.666C7.47397 15.3257 7.94829 14.9328 7.94829 14.9328C8.0353 14.8581 8.10009 14.7609 8.13557 14.6519C8.17106 14.5429 8.17587 14.4262 8.14949 14.3146C8.12311 14.2031 8.06655 14.1009 7.98599 14.0193C7.90544 13.9377 7.80399 13.8799 7.69276 13.8521C6.55829 13.5684 5.8307 13.1097 5.37424 12.7274L6.02609 12.5646C6.15501 12.5324 6.27031 12.46 6.35528 12.3579C6.44025 12.2557 6.49046 12.1292 6.49862 11.9966C6.50678 11.8639 6.47248 11.7322 6.40068 11.6204C6.32888 11.5086 6.22333 11.4226 6.09934 11.3748C4.7472 10.8548 4.17941 10.1193 3.88905 9.50309C4.24237 9.57624 4.57135 9.66667 5.04139 9.66667C5.18215 9.66655 5.31874 9.61893 5.42906 9.53152C5.53939 9.44411 5.61698 9.32202 5.64927 9.18502C5.68157 9.04803 5.66668 8.90414 5.60702 8.77665C5.54735 8.64917 5.44641 8.54556 5.32053 8.48258C5.32053 8.48258 3.99973 7.875 3.99973 6.125C3.99973 5.81081 4.08674 5.61181 4.15028 5.37386C4.36827 5.66681 4.54793 5.94941 4.89979 6.27393C5.97257 7.26331 7.74571 8.27215 10.4247 8.41585C10.5095 8.42038 10.5943 8.40758 10.6739 8.37826C10.7536 8.34893 10.8264 8.30369 10.8881 8.24528C10.9497 8.18688 10.9987 8.11653 11.0322 8.03855C11.0658 7.96056 11.0831 7.87656 11.0831 7.79167V7.16667C11.0831 5.54868 12.3817 4.25 13.9997 4.25Z" fill="white"/>
</g>
</svg>
