<svg width="32" height="32" viewBox="0 0 32 32" fill="none" xmlns="http://www.w3.org/2000/svg">
<path d="M7.68995 1.91992C6.67662 1.91992 5.83641 2.32297 5.29245 2.93492C4.74849 3.54688 4.48995 4.3377 4.48995 5.11992C4.48995 5.90214 4.74849 6.69297 5.29245 7.30492C5.83641 7.91688 6.67662 8.31992 7.68995 8.31992C8.70329 8.31992 9.54474 7.91688 10.0887 7.30492C10.6327 6.69297 10.89 5.90214 10.89 5.11992C10.89 4.3377 10.6327 3.54688 10.0887 2.93492C9.54474 2.32297 8.70329 1.91992 7.68995 1.91992ZM24.33 1.91992C23.3166 1.91992 22.4764 2.32297 21.9325 2.93492C21.3885 3.54688 21.13 4.3377 21.13 5.11992C21.13 5.90214 21.3885 6.69297 21.9325 7.30492C22.4764 7.91688 23.3166 8.31992 24.33 8.31992C25.3433 8.31992 26.1847 7.91688 26.7287 7.30492C27.2727 6.69297 27.53 5.90214 27.53 5.11992C27.53 4.3377 27.2727 3.54688 26.7287 2.93492C26.1847 2.32297 25.3433 1.91992 24.33 1.91992ZM7.68995 3.19992C8.38329 3.19992 8.82308 3.43688 9.13245 3.78492C9.44182 4.13297 9.60995 4.62214 9.60995 5.11992C9.60995 5.6177 9.44182 6.10688 9.13245 6.45492C8.82308 6.80297 8.38329 7.03992 7.68995 7.03992C6.99662 7.03992 6.55807 6.80297 6.2487 6.45492C5.93933 6.10688 5.76995 5.6177 5.76995 5.11992C5.76995 4.62214 5.93933 4.13297 6.2487 3.78492C6.55807 3.43688 6.99662 3.19992 7.68995 3.19992ZM24.33 3.19992C25.0233 3.19992 25.4631 3.43688 25.7725 3.78492C26.0818 4.13297 26.25 4.62214 26.25 5.11992C26.25 5.6177 26.0818 6.10688 25.7725 6.45492C25.4631 6.80297 25.0233 7.03992 24.33 7.03992C23.6366 7.03992 23.1981 6.80297 22.8887 6.45492C22.5793 6.10688 22.41 5.6177 22.41 5.11992C22.41 4.62214 22.5793 4.13297 22.8887 3.78492C23.1981 3.43688 23.6366 3.19992 24.33 3.19992ZM4.79995 8.95992C3.63747 8.95992 2.39779 9.46318 1.98495 10.5974C1.98009 10.6077 1.97551 10.6181 1.9712 10.6287C1.96539 10.6455 1.9554 10.6591 1.94995 10.6762C1.9422 10.7008 1.93594 10.7258 1.9312 10.7512L0.701203 15.2662C0.278801 16.8126 1.74747 18.2814 3.2937 17.8599C3.30335 17.8572 3.31294 17.8543 3.32245 17.8512L3.83995 17.6837V27.8399C3.83995 29.0695 4.85039 30.0799 6.07995 30.0799C6.70663 30.0799 7.27189 29.8139 7.67995 29.3937C8.08802 29.8139 8.65327 30.0799 9.27995 30.0799C10.5095 30.0799 11.52 29.0695 11.52 27.8399V21.6399C11.7215 21.7126 11.9348 21.7599 12.16 21.7599C13.0307 21.7599 13.6538 21.1095 13.885 20.3087C13.9477 20.248 13.9974 20.1751 14.0309 20.0945C14.0645 20.0138 14.0811 19.9272 14.08 19.8399V12.4799C14.08 10.545 12.4955 8.95992 10.56 8.95992H9.9837H5.3762H4.79995ZM22.18 8.95992C21.3289 8.95992 20.6655 9.36982 20.2587 9.83242C19.8696 10.275 19.6758 10.749 19.5737 11.0749C19.562 11.1012 18.9914 12.3793 18.35 13.8887C17.7037 15.4094 17.007 17.0964 16.74 18.0137C16.3735 19.168 17.1515 20.4274 18.3287 20.4274C18.3394 20.4274 18.3504 20.4238 18.3612 20.4237L17.9937 21.4074C17.9835 21.4347 17.9751 21.4627 17.9687 21.4912C17.9429 21.6055 17.9068 21.7359 17.8987 21.9187C17.8906 22.1014 17.9318 22.348 18.0537 22.5499C18.0751 22.5847 18.0998 22.6173 18.1275 22.6474C18.2727 22.8085 18.3652 22.8275 18.4425 22.8574C18.5197 22.8873 18.5858 22.9044 18.6525 22.9199C18.7858 22.951 18.9211 22.9717 19.0562 22.9887C19.3264 23.0226 19.5446 23.0399 19.71 23.0399H21.0775V28.2124C21.0775 29.2385 21.9735 30.0262 22.9975 30.0262C23.4851 30.0262 23.9308 29.8277 24.2775 29.5299C24.624 29.8273 25.0702 30.0262 25.5575 30.0262C26.5815 30.0262 27.4775 29.2385 27.4775 28.2124V23.0399H28.7887C28.8749 23.0399 29.0207 23.0461 29.2137 22.9899C29.4067 22.9337 29.6513 22.7776 29.7887 22.5487C30.05 22.1132 29.9563 21.713 29.8762 21.4474L28.6612 17.4199C29.0968 17.3895 29.4879 17.2484 29.7925 16.9812C30.3329 16.5069 30.4816 15.73 30.285 15.0087C30.2802 14.9918 30.2748 14.9751 30.2687 14.9587L28.9212 11.2512C28.9108 11.222 28.8982 11.1936 28.8837 11.1662C28.8801 11.1514 28.8759 11.1369 28.8712 11.1224C28.7733 10.7966 28.578 10.295 28.1712 9.83242C27.7644 9.36982 27.101 8.95992 26.25 8.95992H24.295H22.18ZM4.79995 10.2399H5.3762H9.9837H10.56C11.8014 10.2399 12.8 11.2391 12.8 12.4799V19.8399C12.8 20.2015 12.5216 20.4799 12.16 20.4799C11.7983 20.4799 11.52 20.2015 11.52 19.8399V14.0799C11.5211 13.9943 11.5051 13.9093 11.4728 13.83C11.4406 13.7507 11.3927 13.6786 11.3321 13.6181C11.2715 13.5576 11.1994 13.5099 11.12 13.4778C11.0406 13.4457 10.9556 13.4298 10.87 13.4312C10.7004 13.4338 10.5389 13.5036 10.4208 13.6252C10.3027 13.7469 10.2376 13.9104 10.24 14.0799V19.8399V27.8399C10.24 28.378 9.81807 28.7999 9.27995 28.7999C8.74183 28.7999 8.31995 28.378 8.31995 27.8399V20.4799C8.32112 20.3943 8.3051 20.3093 8.27284 20.23C8.24057 20.1507 8.19272 20.0786 8.13211 20.0181C8.0715 19.9576 7.99936 19.9099 7.91998 19.8778C7.8406 19.8457 7.75558 19.8298 7.66995 19.8312C7.50043 19.8338 7.33889 19.9036 7.22078 20.0252C7.10266 20.1469 7.03763 20.3104 7.03995 20.4799V27.8399C7.03995 28.378 6.61807 28.7999 6.07995 28.7999C5.54183 28.7999 5.11995 28.378 5.11995 27.8399V17.2799C5.11997 17.277 5.11997 17.2741 5.11995 17.2712L7.9912 16.3449C8.96161 16.0316 9.53081 15.0068 9.2837 14.0174C9.01066 12.9252 7.84469 12.2838 6.7762 12.6399L4.27745 13.4724C4.11633 13.5261 3.98315 13.6416 3.9072 13.7935C3.83124 13.9454 3.81875 14.1213 3.87245 14.2824C3.92616 14.4435 4.04167 14.5767 4.19357 14.6527C4.34548 14.7286 4.52133 14.7411 4.68245 14.6874L7.1812 13.8549C7.5604 13.7285 7.94558 13.9399 8.04245 14.3274C8.12943 14.6757 7.93904 15.0171 7.59745 15.1274L2.95745 16.6249H2.9562C2.3053 16.8013 1.75841 16.2546 1.9362 15.6037L3.17745 11.0499V11.0487C3.3261 10.6279 4.01554 10.2399 4.79995 10.2399ZM22.18 10.2399H24.295H26.25C26.7205 10.2399 26.9823 10.4186 27.21 10.6774C27.4376 10.9363 27.5854 11.289 27.6462 11.4912C27.6588 11.5389 27.6768 11.5851 27.7 11.6287C27.7053 11.6485 27.7115 11.6682 27.7187 11.6874L29.0487 15.3499C29.1481 15.7218 29.0719 15.9118 28.9487 16.0199C28.8284 16.1255 28.545 16.2259 27.9987 16.0749C27.9595 16.0593 27.9189 16.0476 27.8775 16.0399L24.3962 14.8737C24.395 14.8733 24.3937 14.8728 24.3925 14.8724C24.1086 14.7795 23.963 14.4908 24.0575 14.2074C24.1511 13.9267 24.4385 13.7824 24.72 13.8749C24.7212 13.8753 24.7225 13.8758 24.7237 13.8762L26.47 14.4387C26.5503 14.4657 26.6353 14.4764 26.7198 14.4704C26.8044 14.4643 26.8869 14.4414 26.9626 14.4032C27.0382 14.3649 27.1055 14.312 27.1606 14.2476C27.2156 14.1831 27.2573 14.1083 27.2832 14.0276C27.3092 13.9469 27.3188 13.8618 27.3115 13.7773C27.3043 13.6928 27.2804 13.6106 27.2411 13.5355C27.2018 13.4604 27.148 13.3938 27.0828 13.3396C27.0176 13.2854 26.9423 13.2447 26.8612 13.2199L25.12 12.6587C24.1828 12.3506 23.1558 12.8671 22.8437 13.8024C22.5298 14.744 23.0501 15.7797 23.9937 16.0887L27.2512 17.1799L28.6337 21.7599H24.2412H21.7175H19.71C19.7163 21.7599 19.4539 21.7457 19.2425 21.7212L22.0175 14.3037C22.0563 14.2038 22.0695 14.0958 22.0558 13.9895C22.0421 13.8833 22.0019 13.7822 21.939 13.6954C21.876 13.6087 21.7923 13.5392 21.6955 13.4933C21.5987 13.4473 21.4919 13.4264 21.385 13.4324C21.2594 13.4396 21.1387 13.4836 21.038 13.559C20.9373 13.6343 20.861 13.7377 20.8187 13.8562L18.995 18.7312C18.965 18.7787 18.9415 18.83 18.925 18.8837C18.9168 18.9079 18.8665 18.9773 18.7387 19.0424C18.6109 19.1075 18.4244 19.1474 18.3287 19.1474C18.0288 19.1474 17.8035 18.8846 17.96 18.3987C17.9621 18.3929 17.9642 18.387 17.9662 18.3812C18.1769 17.6545 18.8858 15.9013 19.5287 14.3887C20.1716 12.876 20.755 11.5674 20.755 11.5674C20.7661 11.5426 20.7757 11.5172 20.7837 11.4912C20.8445 11.289 20.9923 10.9363 21.22 10.6774C21.4475 10.4186 21.7094 10.2399 22.18 10.2399ZM22.3575 23.0399H23.6375V28.2124C23.6375 28.4766 23.3815 28.7462 22.9975 28.7462C22.6135 28.7462 22.3575 28.4766 22.3575 28.2124V23.0399ZM24.9175 23.0399H26.1975V28.2124C26.1975 28.4766 25.9415 28.7462 25.5575 28.7462C25.1735 28.7462 24.9175 28.4766 24.9175 28.2124V23.0399Z" fill="#2973E2"/>
</svg>
